<svg width="58" height="58" viewBox="0 0 58 58" fill="none" xmlns="http://www.w3.org/2000/svg">
<mask id="mask0_348_1043" style="mask-type:alpha" maskUnits="userSpaceOnUse" x="0" y="0" width="58" height="58">
<rect width="58" height="58" fill="#D9D9D9"/>
</mask>
<g mask="url(#mask0_348_1043)">
<path d="M14.9829 42.8959C17.1982 41.4057 19.4135 40.2275 21.6288 39.3616C23.8441 38.4956 26.301 38.0626 28.9996 38.0626C31.6982 38.0626 34.1552 38.4956 36.3704 39.3616C38.5857 40.2275 40.801 41.4057 43.0163 42.8959C44.7482 41.0834 46.1277 39.0074 47.1548 36.6678C48.1819 34.3282 48.6954 31.7723 48.6954 29.0001C48.6954 23.5223 46.7822 18.8702 42.9559 15.0438C39.1295 11.2175 34.4774 9.30426 28.9996 9.30426C23.5218 9.30426 18.8697 11.2175 15.0434 15.0438C11.217 18.8702 9.30378 23.5223 9.30378 29.0001C9.30378 31.7723 9.81732 34.3282 10.8444 36.6678C11.8715 39.0074 13.251 41.0834 14.9829 42.8959ZM28.9835 29.6647C27.0609 29.6647 25.4451 29.0048 24.1361 27.6851C22.827 26.3653 22.1725 24.7441 22.1725 22.8215C22.1725 20.8989 22.8324 19.2831 24.1521 17.9741C25.4719 16.665 27.0931 16.0105 29.0157 16.0105C30.9383 16.0105 32.5541 16.6704 33.8632 17.9901C35.1722 19.3099 35.8267 20.9311 35.8267 22.8537C35.8267 24.7763 35.1668 26.3921 33.8471 27.7011C32.5273 29.0102 30.9061 29.6647 28.9835 29.6647ZM29.0279 50.0251C26.0688 50.0251 23.3162 49.4813 20.7701 48.3938C18.224 47.3064 15.9987 45.806 14.094 43.8928C12.1894 41.9796 10.6934 39.759 9.60586 37.2309C8.51836 34.7028 7.97461 31.9639 7.97461 29.0142C7.97461 26.0645 8.51836 23.3209 9.60586 20.7834C10.6934 18.2459 12.1937 16.0206 14.1069 14.1074C16.0201 12.1942 18.2407 10.6938 20.7688 9.60635C23.2969 8.51885 26.0358 7.9751 28.9855 7.9751C31.9352 7.9751 34.6788 8.51885 37.2163 9.60635C39.7538 10.6938 41.9791 12.1942 43.8923 14.1074C45.8055 16.0206 47.3059 18.2466 48.3934 20.7854C49.4809 23.3242 50.0246 26.053 50.0246 28.9718C50.0246 31.931 49.4809 34.6836 48.3934 37.2296C47.3059 39.7757 45.8055 42.001 43.8923 43.9057C41.9791 45.8103 39.7531 47.3064 37.2143 48.3938C34.6756 49.4813 31.9467 50.0251 29.0279 50.0251ZM28.9996 48.6959C31.2954 48.6959 33.5913 48.2831 35.8871 47.4574C38.1829 46.6317 40.1968 45.4334 41.9288 43.8626C40.1968 42.4932 38.2333 41.4057 36.0382 40.6001C33.843 39.7945 31.4968 39.3918 28.9996 39.3918C26.5024 39.3918 24.1461 39.7845 21.9309 40.5699C19.7156 41.3553 17.7822 42.4529 16.1309 43.8626C17.8225 45.4334 19.8163 46.6317 22.1121 47.4574C24.4079 48.2831 26.7038 48.6959 28.9996 48.6959ZM29.0081 28.3355C30.5733 28.3355 31.8795 27.8091 32.9267 26.7562C33.9739 25.7034 34.4975 24.3944 34.4975 22.8291C34.4975 21.2639 33.9711 19.9577 32.9182 18.9105C31.8654 17.8633 30.5564 17.3397 28.9912 17.3397C27.426 17.3397 26.1197 17.8661 25.0725 18.919C24.0253 19.9718 23.5017 21.2808 23.5017 22.8461C23.5017 24.4113 24.0281 25.7175 25.081 26.7647C26.1338 27.8119 27.4428 28.3355 29.0081 28.3355Z" fill="#1C1B1F"/>
</g>
</svg>
