<svg width="289" height="92" viewBox="0 0 289 92" fill="none" xmlns="http://www.w3.org/2000/svg">
<path d="M46 1H243.346C268.235 1 288.346 21.1746 288.346 46C288.346 70.8883 268.172 91 243.346 91H46C21.1117 91 1 70.8254 1 46C1 21.1746 21.1746 1 46 1Z" fill="white"/>
<path d="M46.001 1.87988H243.347C267.733 1.87988 287.467 21.6145 287.467 46C287.467 70.3855 267.733 90.1201 243.347 90.1201H46.001C21.6155 90.1201 1.88086 70.3855 1.88086 46C1.88086 21.6145 21.6155 1.87988 46.001 1.87988Z" stroke="#DDDDDD" stroke-width="2.7543"/>
<path d="M105.519 25.0084V35.2528H108.598C110.232 35.2528 111.489 34.75 112.495 33.8073C113.5 32.8646 113.94 31.6076 113.94 30.0992C113.94 28.5908 113.438 27.3338 112.495 26.3911C111.552 25.4484 110.232 25.0084 108.598 25.0084H105.519ZM108.598 26.5168C109.729 26.5168 110.672 26.831 111.301 27.5224C111.992 28.1509 112.306 29.0308 112.306 30.1621C112.306 31.2305 111.992 32.1104 111.301 32.8017C110.609 33.4931 109.729 33.8073 108.598 33.8073H107.09V26.5168H108.598Z" fill="#010202"/>
<path d="M119.156 27.4595C118.088 27.4595 117.145 27.8366 116.391 28.5908C115.637 29.3449 115.26 30.2877 115.26 31.419C115.26 32.5503 115.637 33.493 116.391 34.2472C117.145 35.0014 118.025 35.3785 119.156 35.4413C120.225 35.4413 121.168 35.0642 121.922 34.31C122.676 33.5558 123.053 32.6131 123.053 31.4818C123.053 30.3505 122.676 29.4078 121.922 28.6536C121.105 27.8366 120.225 27.4595 119.156 27.4595ZM119.156 28.9679C119.785 28.9679 120.351 29.2193 120.79 29.722C121.23 30.162 121.419 30.7905 121.419 31.4818C121.419 32.1732 121.168 32.8017 120.79 33.2416C120.351 33.6815 119.785 33.9329 119.156 33.9329C118.528 33.9329 117.962 33.6815 117.522 33.2416C117.082 32.7388 116.894 32.1732 116.894 31.4818C116.894 30.7905 117.082 30.162 117.522 29.722C117.962 29.2193 118.528 28.9679 119.156 28.9679Z" fill="#010202"/>
<path d="M132.291 32.5503L130.029 27.4595H129.463L127.263 32.6131L125.315 27.648H123.618L126.886 35.4413H127.452L129.777 30.3505L132.103 35.4413H132.668L135.874 27.648H134.177L132.291 32.5503Z" fill="#010202"/>
<path d="M140.902 27.4595C140.022 27.4595 139.268 27.7737 138.702 28.4022V27.648H137.257V35.2528H138.828V30.7276C138.828 29.6592 139.519 28.9679 140.525 28.9679C141.468 28.9679 142.096 29.6592 142.096 30.7276V35.2528H143.667V30.4762C143.667 28.6536 142.599 27.4595 140.902 27.4595Z" fill="#010202"/>
<path d="M145.805 23.6257V35.2528H147.376V23.6257H145.805Z" fill="#010202"/>
<path d="M153.032 27.4595C151.964 27.4595 151.021 27.8366 150.267 28.5908C149.513 29.3449 149.136 30.2877 149.136 31.419C149.136 32.5503 149.513 33.493 150.267 34.2472C151.021 35.0014 151.901 35.3785 153.032 35.4413C154.101 35.4413 155.044 35.0642 155.798 34.31C156.552 33.5558 156.929 32.6131 156.929 31.4818C156.929 30.3505 156.552 29.4078 155.798 28.6536C155.044 27.8366 154.101 27.4595 153.032 27.4595ZM153.095 28.9679C153.724 28.9679 154.289 29.2193 154.729 29.722C155.169 30.162 155.358 30.7905 155.358 31.4818C155.358 32.1732 155.106 32.8017 154.729 33.2416C154.289 33.6815 153.724 33.9329 153.095 33.9329C152.467 33.9329 151.901 33.6815 151.461 33.2416C151.021 32.7388 150.833 32.1732 150.833 31.4818C150.833 30.7905 151.021 30.162 151.461 29.722C151.838 29.2193 152.404 28.9679 153.095 28.9679Z" fill="#010202"/>
<path d="M161.579 27.4595C160.26 27.4595 159.254 28.0251 158.5 29.0936L159.38 30.0363C160.008 29.2821 160.7 28.905 161.391 28.905C162.396 28.905 162.962 29.4706 162.962 30.5391V31.0419H160.888C159.254 31.0419 158.186 31.9218 158.186 33.2416C158.186 34.5614 159.191 35.4413 160.762 35.4413C161.768 35.4413 162.522 35.1271 163.088 34.4357V35.3156H164.533V30.7276C164.533 28.5908 163.339 27.4595 161.579 27.4595ZM161.077 34.1843C160.322 34.1843 159.82 33.8072 159.82 33.1788C159.82 32.5503 160.26 32.236 161.139 32.236H163.025V32.3617C162.962 33.4301 162.145 34.1843 161.077 34.1843Z" fill="#010202"/>
<path d="M172.264 28.5908C171.698 27.8366 170.881 27.4595 169.813 27.4595C168.807 27.4595 167.927 27.8366 167.236 28.5908C166.545 29.345 166.23 30.2877 166.23 31.419C166.23 32.5503 166.545 33.493 167.236 34.2472C167.927 35.0014 168.744 35.3785 169.813 35.3785C170.944 35.3785 171.824 34.9386 172.39 34.1215V35.19H173.835V23.5629H172.264V28.5908ZM170.127 33.933C169.499 33.933 168.933 33.6816 168.493 33.2416C168.053 32.8017 167.865 32.1732 167.865 31.419C167.865 30.6648 168.053 30.0992 168.493 29.6592C168.933 29.2193 169.436 28.9679 170.127 28.9679C170.693 28.9679 171.258 29.1564 171.698 29.5964C172.138 30.0363 172.327 30.6648 172.327 31.419C172.327 33.1159 171.321 33.933 170.127 33.933Z" fill="#010202"/>
<path d="M183.702 27.4595C182.634 27.4595 181.691 27.8366 180.937 28.5908C180.183 29.3449 179.806 30.2877 179.806 31.419C179.806 32.5503 180.183 33.493 180.937 34.2472C181.691 35.0014 182.571 35.3785 183.702 35.4413C184.771 35.4413 185.713 35.0642 186.468 34.31C187.222 33.5558 187.599 32.6131 187.599 31.4818C187.599 30.3505 187.222 29.4078 186.468 28.6536C185.651 27.8366 184.771 27.4595 183.702 27.4595ZM183.702 28.9679C184.331 28.9679 184.896 29.2193 185.336 29.722C185.776 30.162 185.965 30.7905 185.965 31.4818C185.965 32.1732 185.713 32.8017 185.336 33.2416C184.896 33.6815 184.331 33.9329 183.702 33.9329C183.074 33.9329 182.508 33.6815 182.068 33.2416C181.628 32.7388 181.44 32.1732 181.44 31.4818C181.44 30.7905 181.628 30.162 182.068 29.722C182.508 29.2193 183.074 28.9679 183.702 28.9679Z" fill="#010202"/>
<path d="M193.004 27.4595C192.124 27.4595 191.37 27.7737 190.804 28.4022V27.648H189.358V35.2528H190.93V30.7276C190.93 29.6592 191.621 28.9679 192.627 28.9679C193.569 28.9679 194.198 29.6592 194.198 30.7276V35.2528H195.769V30.4762C195.769 28.6536 194.763 27.4595 193.004 27.4595Z" fill="#010202"/>
<path d="M205.512 33.9329C204.569 33.9329 204.066 33.6187 204.066 32.6131V29.0307H206.266V27.648H204.066V25.6368H202.495V27.648H201.301V29.0307H202.495V32.7388C202.495 34.4986 203.5 35.3785 205.197 35.3785C205.575 35.3785 206.014 35.3156 206.517 35.1899V33.8072C206.014 33.9329 205.7 33.9329 205.512 33.9329Z" fill="#010202"/>
<path d="M211.734 27.4595C210.854 27.4595 210.162 27.7738 209.597 28.4023V23.6257H208.025V35.2528H209.597V30.7277C209.597 29.6593 210.288 28.9679 211.294 28.9679C212.236 28.9679 212.865 29.6593 212.865 30.7277V35.2528H214.436V30.4763C214.436 28.7165 213.43 27.4595 211.734 27.4595Z" fill="#010202"/>
<path d="M223.361 30.979C223.361 29.9734 223.047 29.1564 222.418 28.4651C221.79 27.7737 220.972 27.4595 220.03 27.4595C218.961 27.4595 218.081 27.8366 217.327 28.6536C216.573 29.4078 216.259 30.3505 216.259 31.4818C216.259 32.6131 216.636 33.5558 217.39 34.31C218.144 35.0642 219.087 35.4413 220.218 35.4413C221.35 35.4413 222.292 35.0642 223.109 34.1843L222.355 33.053C221.727 33.6815 220.972 33.9329 220.218 33.9329C218.961 33.9329 218.019 33.1788 217.83 31.9218H223.298C223.298 31.6075 223.361 31.2933 223.361 30.979ZM219.904 28.8422C220.972 28.8422 221.79 29.5963 221.79 30.7276H217.83C218.019 29.5963 218.836 28.8422 219.904 28.8422Z" fill="#010202"/>
<path d="M122.047 62.5922L113.877 43.0461H112.871L104.764 62.5922H107.906L109.226 59.3869H117.522L118.842 62.5922H122.047ZM110.294 56.7473L113.374 48.7654L116.391 56.7473H110.294Z" fill="#010202"/>
<path d="M131.726 47.9484C129.715 47.9484 127.956 48.8283 126.95 50.3366V48.3255H124.185V67.8715H127.138V60.8953C128.207 62.278 129.778 62.9065 131.726 62.9065C133.675 62.9065 135.309 62.2151 136.566 60.7696C137.823 59.3241 138.451 57.5643 138.451 55.4274C138.451 53.2905 137.823 51.5308 136.566 50.0852C135.309 48.6397 133.675 47.9484 131.726 47.9484ZM131.224 60.0783C130.092 60.0783 129.087 59.7012 128.27 58.8841C127.453 58.0671 127.076 56.9358 127.076 55.3646C127.076 52.285 128.961 50.7137 131.224 50.7137C132.418 50.7137 133.423 51.1537 134.24 52.0336C135.057 52.9134 135.435 54.0447 135.435 55.4274C135.435 56.8101 135.057 57.8785 134.24 58.7584C133.423 59.6383 132.418 60.0783 131.224 60.0783Z" fill="#010202"/>
<path d="M148.758 47.9484C146.747 47.9484 144.987 48.8283 143.981 50.3366V48.3255H141.216V67.8715H144.17V60.8953C145.238 62.278 146.809 62.9065 148.758 62.9065C150.706 62.9065 152.34 62.2151 153.597 60.7696C154.854 59.3241 155.483 57.5643 155.483 55.4274C155.483 53.2905 154.854 51.5308 153.597 50.0852C152.34 48.6397 150.706 47.9484 148.758 47.9484ZM148.318 60.0783C147.186 60.0783 146.181 59.7012 145.364 58.8841C144.547 58.0671 144.17 56.9358 144.17 55.3646C144.17 52.285 146.055 50.7137 148.318 50.7137C149.512 50.7137 150.517 51.1537 151.335 52.0336C152.152 52.9134 152.529 54.0447 152.529 55.4274C152.529 56.8101 152.152 57.8785 151.335 58.7584C150.455 59.6383 149.512 60.0783 148.318 60.0783Z" fill="#010202"/>
<path d="M171.384 43.0461C169.75 43.0461 168.368 43.5489 167.236 44.4917C166.105 45.4344 165.539 46.6914 165.539 48.2626C165.539 50.7137 167.111 52.285 169.813 53.6048L171.824 54.6104C173.773 55.5531 174.527 56.1188 174.527 57.5014C174.527 59.1355 173.27 60.204 171.322 60.204C169.436 60.204 167.865 59.1984 166.482 57.1243L164.408 58.7584C165.854 61.3352 168.368 62.9065 171.384 62.9065C173.144 62.9065 174.653 62.4037 175.784 61.3981C176.978 60.3925 177.544 59.0098 177.544 57.3758C177.544 54.8618 176.098 53.3534 173.144 51.9079L171.07 50.9023C169.185 49.9595 168.493 49.4568 168.493 48.1369C168.493 46.6285 169.75 45.8115 171.259 45.8115C172.83 45.8115 174.15 46.6285 175.155 48.1369L177.229 46.5028C176.161 44.4288 173.961 43.0461 171.384 43.0461Z" fill="#010202"/>
<path d="M186.845 60.141C185.085 60.141 184.142 59.5125 184.142 57.6899V50.9022H188.227V48.2625H184.142V44.4916H181.188V48.2625H178.926V50.9022H181.188V57.8784C181.188 61.2095 183.074 62.8435 186.216 62.8435C186.908 62.8435 187.725 62.7178 188.667 62.5293V59.9525C187.85 60.0782 187.285 60.141 186.845 60.141Z" fill="#010202"/>
<path d="M197.151 47.9484C195.14 47.9484 193.381 48.7026 191.998 50.0852C190.615 51.5308 189.924 53.2905 189.924 55.3646C189.924 57.4386 190.615 59.2612 191.998 60.6439C193.381 62.0894 195.077 62.7808 197.151 62.8436C199.163 62.8436 200.86 62.0894 202.305 60.7067C203.751 59.2612 204.442 57.5014 204.442 55.3646C204.442 53.2905 203.688 51.4679 202.305 50.0852C200.922 48.7026 199.163 47.9484 197.151 47.9484ZM197.214 50.7766C198.408 50.7766 199.414 51.2165 200.231 52.1593C201.048 53.0391 201.488 54.1076 201.488 55.4903C201.488 56.8101 201.048 57.8785 200.231 58.8213C199.414 59.7012 198.408 60.1411 197.214 60.1411C195.957 60.1411 194.952 59.7012 194.198 58.8213C193.381 57.9414 193.003 56.8101 193.003 55.4903C193.003 54.1704 193.381 53.0391 194.198 52.1593C194.952 51.2165 195.957 50.7766 197.214 50.7766Z" fill="#010202"/>
<path d="M213.996 48.1368C212.299 48.1368 210.979 48.8282 209.973 50.148V48.2625H207.208V62.5293H210.162V54.9245C210.162 52.4106 211.859 50.9651 214.184 50.9651H215.064V48.2625C214.813 48.1997 214.436 48.1368 213.996 48.1368Z" fill="#010202"/>
<path d="M229.519 54.4847C229.519 52.5992 228.89 51.028 227.696 49.771C226.502 48.514 224.994 47.8855 223.171 47.8855C221.16 47.8855 219.463 48.6397 218.143 50.0852C216.76 51.5307 216.132 53.2905 216.132 55.3646C216.132 57.5014 216.823 59.2612 218.206 60.7067C219.589 62.1523 221.348 62.8436 223.485 62.8436C225.559 62.8436 227.382 62.0894 228.953 60.5182L227.57 58.4442C226.313 59.5754 224.994 60.1411 223.548 60.1411C221.16 60.1411 219.463 58.7584 219.086 56.3701H229.33C229.393 55.7416 229.519 55.1132 229.519 54.4847ZM223.045 50.5252C225.056 50.5252 226.565 51.9078 226.565 54.0447H219.086C219.526 51.9078 221.097 50.5252 223.045 50.5252Z" fill="#010202"/>
<path d="M91.1255 44.7429C91.0626 39.2751 95.902 36.6354 96.0906 36.5097C93.3881 32.8016 89.1143 32.2988 87.6688 32.236C84.1492 31.8589 80.6925 34.2471 78.8699 34.2471C77.0473 34.2471 74.2191 32.2988 71.2652 32.3617C67.4314 32.4245 63.7861 34.4985 61.8378 37.7667C57.7526 44.3658 60.7693 54.1075 64.7288 59.4496C66.6772 62.0893 68.9397 64.9804 71.9565 64.9175C74.9104 64.7918 75.9788 63.1577 79.4984 63.1577C83.0179 63.1577 84.0235 64.9175 87.1031 64.8547C90.2456 64.7918 92.2568 62.215 94.1423 59.5753C96.4048 56.5586 97.2847 53.6047 97.3476 53.479C97.2219 53.4161 91.1883 51.2792 91.1255 44.7429ZM85.3434 28.7793C86.9146 26.9566 87.983 24.4427 87.6688 21.8658C85.4062 21.9287 82.5152 23.3114 80.8811 25.134C79.4355 26.7052 78.1157 29.3449 78.4928 31.796C81.0696 31.9846 83.7093 30.539 85.3434 28.7793Z" fill="#0F0829"/>
</svg>
