<svg width="32" height="32" viewBox="0 0 32 32" fill="none" xmlns="http://www.w3.org/2000/svg">
<mask id="mask0_332_120" style="mask-type:alpha" maskUnits="userSpaceOnUse" x="0" y="0" width="32" height="32">
<rect width="32" height="32" fill="#D9D9D9"/>
</mask>
<g mask="url(#mask0_332_120)">
<path d="M21.4993 4C23.7216 4 25.5827 4.82222 27.0827 6.46667C28.5827 8.11111 29.3327 10.0667 29.3327 12.3333C29.3327 12.7333 29.3105 13.1278 29.266 13.5167C29.2216 13.9056 29.1438 14.2889 29.0327 14.6667H20.6993L18.4327 11.2667C18.3216 11.0889 18.166 10.9444 17.966 10.8333C17.766 10.7222 17.5549 10.6667 17.3327 10.6667C17.0438 10.6667 16.7827 10.7556 16.5493 10.9333C16.316 11.1111 16.1549 11.3333 16.066 11.6L14.266 17L13.0993 15.2667C12.9882 15.0889 12.8327 14.9444 12.6327 14.8333C12.4327 14.7222 12.2216 14.6667 11.9993 14.6667H2.96602C2.8549 14.2889 2.77713 13.9056 2.73268 13.5167C2.68824 13.1278 2.66602 12.7444 2.66602 12.3667C2.66602 10.0778 3.41046 8.11111 4.89935 6.46667C6.38824 4.82222 8.24379 4 10.466 4C11.5327 4 12.5382 4.21111 13.4827 4.63333C14.4271 5.05556 15.266 5.64444 15.9993 6.4C16.7105 5.64444 17.5382 5.05556 18.4827 4.63333C19.4271 4.21111 20.4327 4 21.4993 4ZM15.9993 28C15.5993 28 15.216 27.9278 14.8493 27.7833C14.4827 27.6389 14.1549 27.4222 13.866 27.1333L4.93268 18.1667C4.79935 18.0333 4.67713 17.9 4.56602 17.7667C4.4549 17.6333 4.34379 17.4889 4.23268 17.3333H11.266L13.5327 20.7333C13.6438 20.9111 13.7993 21.0556 13.9993 21.1667C14.1993 21.2778 14.4105 21.3333 14.6327 21.3333C14.9216 21.3333 15.1882 21.2444 15.4327 21.0667C15.6771 20.8889 15.8438 20.6667 15.9327 20.4L17.7327 15L18.866 16.7333C18.9993 16.9111 19.166 17.0556 19.366 17.1667C19.566 17.2778 19.7771 17.3333 19.9993 17.3333H27.7327L27.066 18.1333L18.0993 27.1333C17.8105 27.4222 17.4882 27.6389 17.1327 27.7833C16.7771 27.9278 16.3993 28 15.9993 28Z" fill="#FF4B4B"/>
</g>
</svg>
