<svg width="34" height="39" viewBox="0 0 34 39" fill="none" xmlns="http://www.w3.org/2000/svg">
<path d="M2.88465 38.9999C2.10035 38.9999 1.4235 38.7152 0.854099 38.1458C0.284699 37.5764 0 36.8996 0 36.1153V7.15394C0 6.36964 0.284699 5.69279 0.854099 5.12339C1.4235 4.55399 2.10035 4.26929 2.88465 4.26929H6.57695V0.769287H9.09615V4.26929H24.9807V0.769287H27.4422V4.26929H31.1153C31.8996 4.26929 32.5764 4.55399 33.1458 5.12339C33.7152 5.69279 33.9999 6.36964 33.9999 7.15394V36.1153C33.9999 36.8996 33.7152 37.5764 33.1458 38.1458C32.5764 38.7152 31.8996 38.9999 31.1153 38.9999H2.88465ZM2.88465 36.7307H31.1153C31.2691 36.7307 31.4102 36.6666 31.5384 36.5384C31.6666 36.4102 31.7307 36.2692 31.7307 36.1153V16.25H2.2692V36.1153C2.2692 36.2692 2.3333 36.4102 2.4615 36.5384C2.58973 36.6666 2.73078 36.7307 2.88465 36.7307ZM2.2692 13.9809H31.7307V7.15394C31.7307 7.00007 31.6666 6.85902 31.5384 6.73079C31.4102 6.60259 31.2691 6.53849 31.1153 6.53849H2.88465C2.73078 6.53849 2.58973 6.60259 2.4615 6.73079C2.3333 6.85902 2.2692 7.00007 2.2692 7.15394V13.9809ZM17 24.1538C16.5102 24.1538 16.0929 23.9814 15.7481 23.6365C15.4032 23.2917 15.2308 22.8744 15.2308 22.3846C15.2308 21.8949 15.4032 21.4776 15.7481 21.1327C16.0929 20.7879 16.5102 20.6154 17 20.6154C17.4897 20.6154 17.907 20.7879 18.2519 21.1327C18.5967 21.4776 18.7691 21.8949 18.7691 22.3846C18.7691 22.8744 18.5967 23.2917 18.2519 23.6365C17.907 23.9814 17.4897 24.1538 17 24.1538ZM8.99995 24.1538C8.51022 24.1538 8.09292 23.9814 7.74805 23.6365C7.40318 23.2917 7.23075 22.8744 7.23075 22.3846C7.23075 21.8949 7.40318 21.4776 7.74805 21.1327C8.09292 20.7879 8.51022 20.6154 8.99995 20.6154C9.48968 20.6154 9.90698 20.7879 10.2519 21.1327C10.5967 21.4776 10.7692 21.8949 10.7692 22.3846C10.7692 22.8744 10.5967 23.2917 10.2519 23.6365C9.90698 23.9814 9.48968 24.1538 8.99995 24.1538ZM25 24.1538C24.5102 24.1538 24.0929 23.9814 23.7481 23.6365C23.4032 23.2917 23.2308 22.8744 23.2308 22.3846C23.2308 21.8949 23.4032 21.4776 23.7481 21.1327C24.0929 20.7879 24.5102 20.6154 25 20.6154C25.4897 20.6154 25.907 20.7879 26.2519 21.1327C26.5967 21.4776 26.7691 21.8949 26.7691 22.3846C26.7691 22.8744 26.5967 23.2917 26.2519 23.6365C25.907 23.9814 25.4897 24.1538 25 24.1538ZM17 32C16.5102 32 16.0929 31.8276 15.7481 31.4827C15.4032 31.1378 15.2308 30.7205 15.2308 30.2308C15.2308 29.7411 15.4032 29.3238 15.7481 28.9789C16.0929 28.634 16.5102 28.4615 17 28.4615C17.4897 28.4615 17.907 28.634 18.2519 28.9789C18.5967 29.3238 18.7691 29.7411 18.7691 30.2308C18.7691 30.7205 18.5967 31.1378 18.2519 31.4827C17.907 31.8276 17.4897 32 17 32ZM8.99995 32C8.51022 32 8.09292 31.8276 7.74805 31.4827C7.40318 31.1378 7.23075 30.7205 7.23075 30.2308C7.23075 29.7411 7.40318 29.3238 7.74805 28.9789C8.09292 28.634 8.51022 28.4615 8.99995 28.4615C9.48968 28.4615 9.90698 28.634 10.2519 28.9789C10.5967 29.3238 10.7692 29.7411 10.7692 30.2308C10.7692 30.7205 10.5967 31.1378 10.2519 31.4827C9.90698 31.8276 9.48968 32 8.99995 32ZM25 32C24.5102 32 24.0929 31.8276 23.7481 31.4827C23.4032 31.1378 23.2308 30.7205 23.2308 30.2308C23.2308 29.7411 23.4032 29.3238 23.7481 28.9789C24.0929 28.634 24.5102 28.4615 25 28.4615C25.4897 28.4615 25.907 28.634 26.2519 28.9789C26.5967 29.3238 26.7691 29.7411 26.7691 30.2308C26.7691 30.7205 26.5967 31.1378 26.2519 31.4827C25.907 31.8276 25.4897 32 25 32Z" fill="#329AD5"/>
</svg>
