<svg width="57" height="57" viewBox="0 0 57 57" fill="none" xmlns="http://www.w3.org/2000/svg">
<mask id="mask0_294_150" style="mask-type:alpha" maskUnits="userSpaceOnUse" x="0" y="0" width="57" height="57">
<rect width="57" height="57" fill="#D9D9D9"/>
</mask>
<g mask="url(#mask0_294_150)">
<path d="M19.6851 39.2148L28.4999 30.3999L37.3148 39.2148L39.2148 37.3148L30.3999 28.4999L39.2148 19.6851L37.3148 17.7851L28.4999 26.6L19.6851 17.7851L17.7851 19.6851L26.6 28.4999L17.7851 37.3148L19.6851 39.2148ZM28.5039 51.0624C25.4077 51.0624 22.4904 50.4702 19.7522 49.2859C17.014 48.1016 14.6194 46.4844 12.5685 44.4344C10.5175 42.3843 8.89962 39.9908 7.71477 37.2538C6.52992 34.5167 5.9375 31.6001 5.9375 28.5039C5.9375 25.3833 6.52967 22.4501 7.714 19.7043C8.89833 16.9585 10.5155 14.57 12.5655 12.5388C14.6156 10.5076 17.0091 8.89962 19.7461 7.71477C22.4831 6.52993 25.3998 5.9375 28.496 5.9375C31.6166 5.9375 34.5498 6.52967 37.2956 7.714C40.0414 8.89834 42.4299 10.5056 44.4611 12.5358C46.4923 14.5661 48.1003 16.9536 49.2851 19.6982C50.47 22.4428 51.0624 25.3754 51.0624 28.496C51.0624 31.5922 50.4702 34.5094 49.2859 37.2477C48.1016 39.9859 46.4943 42.3805 44.464 44.4314C42.4338 46.4824 40.0463 48.1003 37.3017 49.2851C34.5571 50.47 31.6245 51.0624 28.5039 51.0624ZM28.4999 48.3677C34.0294 48.3677 38.7231 46.4327 42.581 42.5627C46.4388 38.6927 48.3677 34.0051 48.3677 28.4999C48.3677 22.9705 46.4388 18.2768 42.581 14.4189C38.7231 10.5611 34.0294 8.63218 28.4999 8.63218C22.9948 8.63218 18.3072 10.5611 14.4372 14.4189C10.5672 18.2768 8.63217 22.9705 8.63217 28.4999C8.63217 34.0051 10.5672 38.6927 14.4372 42.5627C18.3072 46.4327 22.9948 48.3677 28.4999 48.3677Z" fill="#A9A9A9"/>
</g>
</svg>
