<svg width="48" height="48" viewBox="0 0 48 48" fill="none" xmlns="http://www.w3.org/2000/svg">
<mask id="mask0_279_429" style="mask-type:alpha" maskUnits="userSpaceOnUse" x="0" y="0" width="48" height="48">
<rect width="48" height="48" fill="#D9D9D9"/>
</mask>
<g mask="url(#mask0_279_429)">
<path d="M11.0577 38.9999V36.7307H14.0115L18.0577 23.3038C18.232 22.6833 18.5683 22.1827 19.0664 21.8019C19.5644 21.4211 20.1397 21.2307 20.7923 21.2307H27.2077C27.8602 21.2307 28.4355 21.4211 28.9336 21.8019C29.4317 22.1827 29.7679 22.6833 29.9423 23.3038L33.9884 36.7307H36.9422V38.9999H11.0577ZM16.4423 36.7307H31.5577L27.7539 23.9422C27.7154 23.8012 27.6417 23.6922 27.5327 23.6153C27.4237 23.5384 27.2987 23.4999 27.1577 23.4999H20.8423C20.7012 23.4999 20.5762 23.5384 20.4673 23.6153C20.3583 23.6922 20.2845 23.8012 20.2461 23.9422L16.4423 36.7307ZM22.8654 15.1538V6.88464H25.1346V15.1538H22.8654ZM34.1538 19.8615L32.5231 18.2307L38.4038 12.4L39.9845 13.9807L34.1538 19.8615ZM37.2308 29.5192V27.25H45.4999V29.5192H37.2308ZM13.8461 19.8615L8.0154 13.9807L9.5961 12.4L15.4769 18.2307L13.8461 19.8615ZM2.5 29.5192V27.25H10.7692V29.5192H2.5Z" fill="#D42B2B"/>
</g>
</svg>
