<svg width="48" height="48" viewBox="0 0 48 48" fill="none" xmlns="http://www.w3.org/2000/svg">
<mask id="mask0_279_432" style="mask-type:alpha" maskUnits="userSpaceOnUse" x="0" y="0" width="48" height="48">
<rect width="48" height="48" fill="#D9D9D9"/>
</mask>
<g mask="url(#mask0_279_432)">
<path d="M5 19.2115V11.8824C5 11.0996 5.2847 10.4235 5.8541 9.8541C6.4235 9.2847 7.10035 9 7.88465 9H40.1153C40.8996 9 41.5764 9.2847 42.1458 9.8541C42.7152 10.4235 42.9999 11.1003 42.9999 11.8846V24H40.7307V11.8846C40.7307 11.7308 40.6666 11.5897 40.5384 11.4615C40.4102 11.3333 40.2691 11.2692 40.1153 11.2692H7.88465C7.73078 11.2692 7.58973 11.3333 7.4615 11.4615C7.3333 11.5897 7.2692 11.7308 7.2692 11.8846V19.2115H5ZM7.88465 38.9999C7.10035 38.9999 6.4235 38.7152 5.8541 38.1458C5.2847 37.5764 5 36.9003 5 36.1176V28.7885H7.2692V36.1153C7.2692 36.2691 7.3333 36.4102 7.4615 36.5384C7.58973 36.6666 7.73078 36.7307 7.88465 36.7307H21.9499V38.9999H7.88465ZM36 44.1538L32.6423 41.3C30.1654 39.1692 28.5481 37.614 27.7904 36.6346C27.0327 35.6551 26.6539 34.6301 26.6539 33.5598C26.6539 32.2218 27.1238 31.0696 28.0636 30.1033C29.0035 29.137 30.1489 28.6539 31.5 28.6539C32.2342 28.6539 32.9331 28.8218 33.5968 29.1577C34.2604 29.4936 34.8691 29.9872 35.423 30.6385L36 31.1577L36.5385 30.6577C37.0718 30.0064 37.6756 29.5096 38.35 29.1673C39.0243 28.825 39.741 28.6539 40.5 28.6539C41.8216 28.6539 42.9597 29.137 43.9143 30.1033C44.8688 31.0696 45.3461 32.2218 45.3461 33.5598C45.3461 34.6301 44.9505 35.6653 44.1595 36.6653C43.3685 37.6653 41.6666 39.2845 39.0538 41.523L36 44.1538ZM36 41.1461L37.6192 39.7461C39.8705 37.8282 41.3429 36.4839 42.0365 35.7134C42.7301 34.9429 43.0769 34.2243 43.0769 33.5577C43.0769 32.8474 42.8192 32.2307 42.3038 31.7077C41.7884 31.1846 41.1871 30.923 40.5 30.923C40.0838 30.923 39.7067 31.0063 39.3687 31.173C39.0306 31.3397 38.6718 31.6128 38.2923 31.9923L36 34.1538L33.6577 31.9923C33.2782 31.6128 32.9173 31.3397 32.5752 31.173C32.233 31.0063 31.8777 30.923 31.5093 30.923C30.7902 30.923 30.1794 31.1846 29.6769 31.7077C29.1743 32.2307 28.923 32.8487 28.923 33.5615C28.923 34.2004 29.3653 35.0172 30.25 36.0118C31.1346 37.0065 32.5038 38.2641 34.3577 39.7846L36 41.1461ZM13.9976 33.1346C13.7633 33.1346 13.5583 33.0871 13.3826 32.9923C13.207 32.8974 13.0551 32.7487 12.9269 32.5461L9.28075 25.1346H5V22.8654H9.99995C10.2078 22.8654 10.4016 22.9246 10.5811 23.043C10.7607 23.1614 10.8913 23.315 10.973 23.5038L13.9999 29.477L20.9769 15.5038C21.0693 15.3141 21.2098 15.1769 21.3985 15.0923C21.5871 15.0077 21.7851 14.9654 21.9926 14.9654C22.2001 14.9654 22.398 15.0077 22.5865 15.0923C22.7749 15.1769 22.914 15.3141 23.0037 15.5038L26.6691 22.8654H33.1346V25.1346H26C25.7599 25.1346 25.551 25.0871 25.3733 24.9923C25.1956 24.8974 25.0634 24.7487 24.9769 24.5461L21.9499 18.573L14.973 32.5461C14.8764 32.7487 14.7405 32.8974 14.5651 32.9923C14.3898 33.0871 14.2006 33.1346 13.9976 33.1346Z" fill="#099D7A"/>
</g>
</svg>
