<svg width="85" height="53" viewBox="0 0 85 53" fill="none" xmlns="http://www.w3.org/2000/svg">
<path d="M5.88387 20.5989C5.88387 20.5989 6.46456 18.2465 4.51283 16.2075C2.55367 14.1649 0.093597 14.1575 0.093597 14.1575C0.093597 14.1575 -0.518639 16.92 1.38857 18.9106C3.29392 20.8958 5.88387 20.5989 5.88387 20.5989Z" fill="black"/>
<path d="M10.2042 20.1724C10.2042 20.1724 12.4917 18.9313 12.911 16.204C13.3322 13.4842 11.2413 11.5696 11.2413 11.5696C11.2413 11.5696 9.23762 12.9944 8.80534 15.7884C8.37678 18.5843 10.2042 20.1724 10.2042 20.1724Z" fill="black"/>
<path d="M13.6441 27.0349C13.6441 27.0349 15.7517 25.5006 15.8129 22.7456C15.8686 19.9942 13.5476 18.3708 13.5476 18.3708C13.5476 18.3708 11.7462 20.0406 11.685 22.8699C11.6237 25.6973 13.6441 27.0349 13.6441 27.0349Z" fill="black"/>
<path d="M20.5496 26.5246C20.3492 23.7807 17.8854 22.3818 17.8854 22.3818C17.8854 22.3818 16.2491 24.213 16.4532 27.0348C16.6572 29.8567 18.7945 30.9977 18.7945 30.9977C18.7945 30.9977 20.7481 29.2704 20.5496 26.5246Z" fill="black"/>
<path d="M25.2634 34.419C25.2634 34.419 26.6418 32.2094 25.6604 29.6324C24.6789 27.0573 21.9146 26.4265 21.9146 26.4265C21.9146 26.4265 20.8738 28.6565 21.8794 31.3003C22.8886 33.9403 25.2634 34.419 25.2634 34.419Z" fill="black"/>
<path d="M6.83825 14.5732C6.83825 14.5732 8.63043 12.9424 8.13508 10.1595C7.63972 7.37846 5.60079 6 5.60079 6C5.60079 6 3.55815 7.96287 4.04052 10.6771C4.52289 13.3858 6.83825 14.5732 6.83825 14.5732Z" fill="black"/>
<path d="M8.24468 25.9367C8.24468 25.9367 8.10739 23.5156 5.63989 22.1427C3.16683 20.7736 0.8125 21.4841 0.8125 21.4841C0.8125 21.4841 1.04255 24.306 3.45068 25.6436C5.86252 26.9813 8.24468 25.9367 8.24468 25.9367Z" fill="black"/>
<path d="M12.4093 30.6341C12.4093 30.6341 11.7377 28.3057 9.02719 27.5154C6.31109 26.725 4.17383 27.9421 4.17383 27.9421C4.17383 27.9421 5.0291 30.6415 7.67285 31.4133C10.3203 32.1869 12.4093 30.6341 12.4093 30.6341Z" fill="black"/>
<path d="M17.0684 33.9811C17.0684 33.9811 15.7252 31.9663 12.9015 32.0349C10.074 32.1036 8.4043 33.9087 8.4043 33.9087C8.4043 33.9087 10.0369 36.2278 12.7883 36.1592C15.5433 36.0961 17.0684 33.9811 17.0684 33.9811Z" fill="black"/>
<path d="M19.0558 35.3466C16.258 35.7567 14.8184 37.7473 14.8184 37.7473C14.8184 37.7473 16.7126 39.8549 19.4398 39.4598C22.1689 39.0627 23.4249 36.7845 23.4249 36.7845C23.4249 36.7845 21.8517 34.9441 19.0558 35.3466Z" fill="black"/>
<path d="M7.75957 15.9571L6.41079 15.9033C6.40708 16.0517 6.07128 30.6619 28.1173 37.2481L28.5032 35.9568C7.51096 29.6842 7.73545 16.5118 7.75957 15.9571Z" fill="black"/>
<path d="M78.621 20.6009C78.621 20.6009 81.2109 20.8978 83.1162 18.9089C85.0235 16.9201 84.4112 14.1558 84.4112 14.1558C84.4112 14.1558 81.9511 14.1669 79.9901 16.2077C78.0365 18.2503 78.621 20.6009 78.621 20.6009Z" fill="black"/>
<path d="M71.5927 16.2059C72.012 18.9313 74.2995 20.1743 74.2995 20.1743C74.2995 20.1743 76.1251 18.5881 75.7002 15.7941C75.268 12.9982 73.2643 11.5752 73.2643 11.5752C73.2643 11.5752 71.1734 13.4861 71.5927 16.2059Z" fill="black"/>
<path d="M70.9575 18.3708C70.9575 18.3708 68.6366 19.9942 68.6904 22.7456C68.7516 25.4969 70.8592 27.0349 70.8592 27.0349C70.8592 27.0349 72.8796 25.6954 72.8202 22.8699C72.7571 20.0462 70.9575 18.3708 70.9575 18.3708Z" fill="black"/>
<path d="M63.9534 26.5265C63.7567 29.2705 65.7085 30.994 65.7085 30.994C65.7085 30.994 67.842 29.8567 68.0498 27.033C68.252 24.2112 66.6175 22.3782 66.6175 22.3782C66.6175 22.3782 64.1575 23.7789 63.9534 26.5265Z" fill="black"/>
<path d="M58.8429 29.634C57.8615 32.2091 59.2399 34.4187 59.2399 34.4187C59.2399 34.4187 61.6128 33.9401 62.6221 31.3019C63.6276 28.6581 62.585 26.4263 62.585 26.4263C62.585 26.4263 59.828 27.0589 58.8429 29.634Z" fill="black"/>
<path d="M77.6673 14.575C77.6673 14.575 79.9827 13.3876 80.4669 10.6771C80.9493 7.96287 78.9048 6 78.9048 6C78.9048 6 76.864 7.37846 76.3723 10.1595C75.8751 12.9442 77.6673 14.575 77.6673 14.575Z" fill="black"/>
<path d="M78.8626 22.1446C76.3951 23.5156 76.2578 25.9367 76.2578 25.9367C76.2578 25.9367 78.6418 26.9831 81.0518 25.6454C83.4599 24.3078 83.69 21.4841 83.69 21.4841C83.69 21.4841 81.3357 20.7717 78.8626 22.1446Z" fill="black"/>
<path d="M75.4759 27.519C72.7654 28.3094 72.0938 30.6377 72.0938 30.6377C72.0938 30.6377 74.1865 32.1887 76.8339 31.4188C79.4777 30.6489 80.333 27.9476 80.333 27.9476C80.333 27.9476 78.192 26.7268 75.4759 27.519Z" fill="black"/>
<path d="M71.6044 32.0366C68.7807 31.968 67.4375 33.9846 67.4375 33.9846C67.4375 33.9846 68.9607 36.0978 71.7176 36.1627C74.4689 36.2295 76.1016 33.9123 76.1016 33.9123C76.1016 33.9123 74.4355 32.1071 71.6044 32.0366Z" fill="black"/>
<path d="M65.4474 35.3465C62.6496 34.9439 61.0801 36.7806 61.0801 36.7806C61.0801 36.7806 62.3379 39.0607 65.0633 39.4578C67.7924 39.8529 69.6848 37.7435 69.6848 37.7435C69.6848 37.7435 68.2451 35.7565 65.4474 35.3465Z" fill="black"/>
<path d="M78.0943 15.9016L76.7437 15.9554C76.7678 16.5138 76.9923 29.6806 56 35.9533L56.3859 37.2427C78.4338 30.6602 78.098 16.05 78.0943 15.9016Z" fill="black"/>
<path d="M30.122 22V19.954C31.0607 19.1767 31.97 18.4067 32.85 17.644C33.7447 16.8813 34.5367 16.126 35.226 15.378C35.93 14.63 36.4873 13.904 36.898 13.2C37.3233 12.4813 37.536 11.7847 37.536 11.11C37.536 10.4793 37.36 9.922 37.008 9.438C36.6707 8.954 36.106 8.712 35.314 8.712C34.5073 8.712 33.8987 8.976 33.488 9.504C33.0773 10.032 32.872 10.67 32.872 11.418H30.144C30.1733 10.2887 30.4227 9.35 30.892 8.602C31.3613 7.83933 31.9847 7.27467 32.762 6.908C33.5393 6.52667 34.412 6.336 35.38 6.336C36.9493 6.336 38.1667 6.76867 39.032 7.634C39.912 8.48467 40.352 9.592 40.352 10.956C40.352 11.8067 40.154 12.6353 39.758 13.442C39.3767 14.2487 38.8707 15.026 38.24 15.774C37.6093 16.522 36.9273 17.226 36.194 17.886C35.4607 18.5313 34.7493 19.1327 34.06 19.69H40.726V22H30.122ZM42.6904 22V19.954C43.629 19.1767 44.5384 18.4067 45.4184 17.644C46.313 16.8813 47.105 16.126 47.7944 15.378C48.4984 14.63 49.0557 13.904 49.4664 13.2C49.8917 12.4813 50.1044 11.7847 50.1044 11.11C50.1044 10.4793 49.9284 9.922 49.5764 9.438C49.239 8.954 48.6744 8.712 47.8824 8.712C47.0757 8.712 46.467 8.976 46.0564 9.504C45.6457 10.032 45.4404 10.67 45.4404 11.418H42.7124C42.7417 10.2887 42.991 9.35 43.4604 8.602C43.9297 7.83933 44.553 7.27467 45.3304 6.908C46.1077 6.52667 46.9804 6.336 47.9484 6.336C49.5177 6.336 50.735 6.76867 51.6004 7.634C52.4804 8.48467 52.9204 9.592 52.9204 10.956C52.9204 11.8067 52.7224 12.6353 52.3264 13.442C51.945 14.2487 51.439 15.026 50.8084 15.774C50.1777 16.522 49.4957 17.226 48.7624 17.886C48.029 18.5313 47.3177 19.1327 46.6284 19.69H53.2944V22H42.6904Z" fill="black"/>
<path d="M11.74 50V43H16.07V43.69H12.58V46.13H15.77V46.81H12.58V49.31H16.07V50H11.74ZM17.5245 50L19.6645 46.47L17.5245 43H18.4745L20.1945 45.8L21.8345 43H22.7745L20.6345 46.51L22.7845 50H21.8345L20.1045 47.19L18.4745 50H17.5245ZM24.4002 50V43H26.7002C27.2468 43 27.6968 43.09 28.0502 43.27C28.4035 43.45 28.6635 43.6933 28.8302 44C29.0035 44.3067 29.0902 44.6533 29.0902 45.04C29.0902 45.42 29.0068 45.7633 28.8402 46.07C28.6735 46.3767 28.4135 46.6233 28.0602 46.81C27.7068 46.99 27.2535 47.08 26.7002 47.08H25.2402V50H24.4002ZM25.2402 46.37H26.6802C27.2402 46.37 27.6368 46.2533 27.8702 46.02C28.1102 45.78 28.2302 45.4533 28.2302 45.04C28.2302 44.62 28.1102 44.2933 27.8702 44.06C27.6368 43.82 27.2402 43.7 26.6802 43.7H25.2402V46.37ZM30.6912 50V43H35.0212V43.69H31.5312V46.13H34.7212V46.81H31.5312V49.31H35.0212V50H30.6912ZM36.8357 50V43H39.0957C39.6424 43 40.089 43.09 40.4357 43.27C40.7824 43.45 41.039 43.6967 41.2057 44.01C41.3724 44.3233 41.4557 44.67 41.4557 45.05C41.4557 45.49 41.3357 45.8867 41.0957 46.24C40.8624 46.5933 40.4957 46.8433 39.9957 46.99L41.5257 50H40.5357L39.1157 47.11H39.0557H37.6757V50H36.8357ZM37.6757 46.45H39.0357C39.5757 46.45 39.969 46.32 40.2157 46.06C40.4624 45.8 40.5857 45.4667 40.5857 45.06C40.5857 44.6467 40.4624 44.32 40.2157 44.08C39.9757 43.8333 39.579 43.71 39.0257 43.71H37.6757V46.45ZM43.2634 50V43H44.1034V50H43.2634ZM46.0877 50V43H50.4177V43.69H46.9277V46.13H50.1177V46.81H46.9277V49.31H50.4177V50H46.0877ZM52.2322 50V43H53.0722L56.8022 48.61V43H57.6422V50H56.8022L53.0722 44.39V50H52.2322ZM62.6967 50.12C62.0101 50.12 61.4167 49.97 60.9167 49.67C60.4234 49.3633 60.0401 48.94 59.7667 48.4C59.4934 47.8533 59.3567 47.22 59.3567 46.5C59.3567 45.7867 59.4934 45.16 59.7667 44.62C60.0401 44.0733 60.4234 43.6467 60.9167 43.34C61.4167 43.0333 62.0101 42.88 62.6967 42.88C63.4967 42.88 64.1467 43.0733 64.6467 43.46C65.1534 43.84 65.4767 44.3733 65.6167 45.06H64.6867C64.5801 44.6267 64.3601 44.28 64.0267 44.02C63.7001 43.7533 63.2567 43.62 62.6967 43.62C62.1967 43.62 61.7601 43.7367 61.3867 43.97C61.0134 44.1967 60.7234 44.5267 60.5167 44.96C60.3167 45.3867 60.2167 45.9 60.2167 46.5C60.2167 47.1 60.3167 47.6167 60.5167 48.05C60.7234 48.4767 61.0134 48.8067 61.3867 49.04C61.7601 49.2667 62.1967 49.38 62.6967 49.38C63.2567 49.38 63.7001 49.2533 64.0267 49C64.3601 48.74 64.5801 48.3967 64.6867 47.97H65.6167C65.4767 48.6433 65.1534 49.17 64.6467 49.55C64.1467 49.93 63.4967 50.12 62.6967 50.12ZM67.324 50V43H71.654V43.69H68.164V46.13H71.354V46.81H68.164V49.31H71.654V50H67.324Z" fill="black"/>
<path d="M30.984 32V29.872L29.16 26.4H29.92L31.32 29.232L32.72 26.4H33.472L31.656 29.872V32H30.984ZM34.6248 32V26.4H38.0888V26.952H35.2968V28.904H37.8488V29.448H35.2968V31.448H38.0888V32H34.6248ZM39.1884 32L41.2524 26.4H41.9644L44.0204 32H43.3084L42.7964 30.56H40.4124L39.8924 32H39.1884ZM40.6124 30.016H42.5964L41.6044 27.248L40.6124 30.016ZM45.2529 32V26.4H47.0609C47.4983 26.4 47.8556 26.472 48.1329 26.616C48.4103 26.76 48.6156 26.9573 48.7489 27.208C48.8823 27.4587 48.9489 27.736 48.9489 28.04C48.9489 28.392 48.8529 28.7093 48.6609 28.992C48.4743 29.2747 48.1809 29.4747 47.7809 29.592L49.0049 32H48.2129L47.0769 29.688H47.0289H45.9249V32H45.2529ZM45.9249 29.16H47.0129C47.4449 29.16 47.7596 29.056 47.9569 28.848C48.1543 28.64 48.2529 28.3733 48.2529 28.048C48.2529 27.7173 48.1543 27.456 47.9569 27.264C47.7649 27.0667 47.4476 26.968 47.0049 26.968H45.9249V29.16ZM52.1791 32.096C51.7685 32.096 51.4111 32.0213 51.1071 31.872C50.8031 31.7227 50.5685 31.5147 50.4031 31.248C50.2378 30.9813 50.1551 30.672 50.1551 30.32H50.8591C50.8591 30.5387 50.9098 30.7413 51.0111 30.928C51.1125 31.1093 51.2591 31.256 51.4511 31.368C51.6485 31.4747 51.8911 31.528 52.1791 31.528C52.5578 31.528 52.8511 31.4373 53.0591 31.256C53.2671 31.0747 53.3711 30.848 53.3711 30.576C53.3711 30.352 53.3231 30.1733 53.2271 30.04C53.1311 29.9013 53.0005 29.7893 52.8351 29.704C52.6751 29.6187 52.4885 29.544 52.2751 29.48C52.0671 29.416 51.8485 29.344 51.6191 29.264C51.1871 29.1147 50.8671 28.9307 50.6591 28.712C50.4511 28.488 50.3471 28.1973 50.3471 27.84C50.3418 27.5413 50.4111 27.2773 50.5551 27.048C50.6991 26.8133 50.9018 26.632 51.1631 26.504C51.4298 26.3707 51.7445 26.304 52.1071 26.304C52.4645 26.304 52.7738 26.3707 53.0351 26.504C53.3018 26.6373 53.5071 26.8213 53.6511 27.056C53.8005 27.2907 53.8778 27.5573 53.8831 27.856H53.1791C53.1791 27.7013 53.1391 27.5493 53.0591 27.4C52.9791 27.2453 52.8565 27.12 52.6911 27.024C52.5311 26.928 52.3285 26.88 52.0831 26.88C51.7791 26.8747 51.5285 26.952 51.3311 27.112C51.1391 27.272 51.0431 27.4933 51.0431 27.776C51.0431 28.016 51.1098 28.2 51.2431 28.328C51.3818 28.456 51.5738 28.5627 51.8191 28.648C52.0645 28.728 52.3471 28.8213 52.6671 28.928C52.9338 29.024 53.1738 29.136 53.3871 29.264C53.6005 29.392 53.7658 29.5573 53.8831 29.76C54.0058 29.9627 54.0671 30.2213 54.0671 30.536C54.0671 30.8027 53.9978 31.056 53.8591 31.296C53.7205 31.5307 53.5098 31.7227 53.2271 31.872C52.9498 32.0213 52.6005 32.096 52.1791 32.096Z" fill="black"/>
</svg>
