<svg width="134" height="134" viewBox="0 0 134 134" fill="none" xmlns="http://www.w3.org/2000/svg">
<mask id="mask0_279_519" style="mask-type:alpha" maskUnits="userSpaceOnUse" x="0" y="0" width="134" height="134">
<rect width="133.23" height="133.23" fill="#D9D9D9"/>
</mask>
<g mask="url(#mask0_279_519)">
<path d="M27.5651 102.355L41.196 78.8945C34.9326 78.4761 29.7183 76.0011 25.5529 71.4695C21.3874 66.938 19.3047 61.6191 19.3047 55.5127C19.3047 48.9357 21.6097 43.3552 26.2196 38.7713C30.8296 34.1876 36.4231 31.8957 43.0002 31.8957C49.5773 31.8957 55.1577 34.1876 59.7415 38.7713C64.3253 43.3552 66.6173 48.9357 66.6173 55.5127C66.6173 57.6407 66.3759 59.6199 65.8932 61.4502C65.4105 63.2804 64.7125 65.0021 63.7994 66.6152L43.2355 102.355H27.5651ZM80.4289 102.355L93.9814 78.8945C87.7181 78.4761 82.5168 76.0011 78.3775 71.4695C74.2382 66.938 72.1685 61.6191 72.1685 55.5127C72.1685 48.9357 74.4605 43.3552 79.0443 38.7713C83.6281 34.1876 89.2085 31.8957 95.7855 31.8957C102.363 31.8957 107.956 34.1876 112.566 38.7713C117.176 43.3552 119.481 48.9357 119.481 55.5127C119.481 57.6407 119.24 59.6199 118.757 61.4502C118.274 63.2804 117.576 65.0021 116.663 66.6152L96.0209 102.355H80.4289Z" fill="#1C1B1F" fill-opacity="0.2"/>
</g>
</svg>
