<svg width="24" height="24" viewBox="0 0 24 24" fill="none" xmlns="http://www.w3.org/2000/svg">
<mask id="mask0_361_712" style="mask-type:alpha" maskUnits="userSpaceOnUse" x="0" y="0" width="24" height="24">
<rect width="24" height="24" fill="#D9D9D9"/>
</mask>
<g mask="url(#mask0_361_712)">
<path d="M7.11446 17.1153C6.86381 17.1153 6.65371 17.0305 6.48416 16.861C6.31461 16.6914 6.22983 16.4813 6.22983 16.2307V14.7307H18.6048L18.9221 15.0481V5.99998H20.4221C20.6727 5.99998 20.8828 6.08475 21.0524 6.2543C21.2219 6.42385 21.3067 6.63394 21.3067 6.88458V18.4691C21.3067 18.8722 21.1218 19.1522 20.7519 19.309C20.382 19.4657 20.0548 19.4018 19.7702 19.1172L17.7683 17.1153H7.11446ZM6.22983 12.7307L4.22793 14.7326C3.94333 15.0172 3.61609 15.0812 3.24621 14.9244C2.87634 14.7676 2.69141 14.4877 2.69141 14.0846V3.38463C2.69141 3.13398 2.77618 2.92388 2.94573 2.75433C3.11528 2.58478 3.32538 2.5 3.57603 2.5H16.0375C16.2882 2.5 16.4983 2.58478 16.6678 2.75433C16.8374 2.92388 16.9221 3.13398 16.9221 3.38463V11.8461C16.9221 12.0968 16.8374 12.3069 16.6678 12.4764C16.4983 12.646 16.2882 12.7307 16.0375 12.7307H6.22983ZM15.4222 11.2308V3.99998H4.19138V11.9231L4.88373 11.2308H15.4222Z" fill="#1C1B1F"/>
</g>
</svg>
