<svg width="409" height="814" viewBox="0 0 409 814" fill="none" xmlns="http://www.w3.org/2000/svg">
<path d="M31.6655 17.7012L64.5725 9.76636H334.037L374.395 17.7012L395.505 48.8303V755.034L386.192 781.89L361.356 802.643H50.2921L31.6655 781.89L12.418 755.034V48.8303L31.6655 17.7012Z" fill="#0F0829"/>
<path d="M52.1758 2.30884C32.8041 7.02905 19.3929 17.7717 10.4522 35.3505L4.16052 47.8835L3.66381 87.7613C3.33267 109.735 2.33925 128.453 1.5114 129.267C-0.475439 131.383 -0.475439 157.914 1.67697 157.914C2.67039 157.914 3.33267 164.099 3.33267 173.376C3.33267 182.654 2.67039 188.839 1.67697 188.839C0.68355 188.839 0.0212707 199.745 0.0212707 218.137C0.0212707 236.53 0.68355 247.435 1.67697 247.435C2.67039 247.435 3.33267 251.504 3.33267 256.387C3.33267 261.27 2.67039 265.34 1.67697 265.34C-0.475439 265.34 -0.641009 322.633 1.67697 324.912C2.67039 325.889 3.49824 404.668 3.66381 546.112L4.16052 765.847L7.96862 775.124C13.4324 788.309 25.8502 801.167 39.4269 807.678L50.5201 813.049L201.851 813.537C369.242 814.026 360.632 814.514 378.183 803.609C388.117 797.423 399.872 782.286 403.184 771.055C405.336 763.894 405.667 733.293 405.667 533.579C405.667 381.88 406.164 304.404 407.323 304.404C409.475 304.404 409.641 209.673 407.323 207.395C406.33 206.418 405.502 175.004 405.336 126.174L404.839 46.4186L400.369 37.1409C391.594 18.7483 374.209 5.40143 354.506 1.65778C340.764 -0.946472 62.7722 -0.29541 52.1758 2.30884ZM107.311 20.7015C108.138 22.3292 109.463 26.561 109.96 29.9792C111.45 37.9547 114.761 43.0005 120.225 45.2792C123.205 46.7441 147.875 47.2324 206.321 47.2324H288.444L293.908 41.8611C297.881 37.9547 299.703 34.3738 300.53 28.8398C301.193 24.7706 302.683 20.5387 304.007 19.3994C305.498 18.2599 314.273 17.7717 330.664 18.2599C354.175 18.7483 355.5 18.911 363.944 23.6313C373.712 28.8398 379.011 34.3738 384.64 44.6282L388.283 51.3016V407.76V764.219L384.474 771.055C379.507 780.496 370.235 789.122 361.129 793.354C353.513 796.772 352.354 796.772 208.805 797.261C48.6988 797.749 53.6659 798.075 39.4269 787.332C34.9565 783.914 30.3205 778.217 27.0092 771.706L21.5453 761.452V408.737C21.5453 17.2834 20.7175 48.0463 32.6385 34.3738C38.2679 27.8632 47.3742 22.1664 56.315 19.3994C58.633 18.7483 70.7196 18.0972 83.1373 18.0972C103.171 17.9344 105.986 18.2599 107.311 20.7015Z" fill="black"/>
<path d="M12.418 38.9871C12.418 23.5231 24.954 10.9871 40.418 10.9871H368.126C383.59 10.9871 396.126 23.5231 396.126 38.9871V775.253C396.126 790.717 383.59 803.253 368.126 803.253H40.418C24.954 803.253 12.418 790.717 12.418 775.253V38.9871Z" fill="url(#paint0_linear_271_412)"/>
<path d="M159.743 396.516H165.214V414.772C165.214 416.459 164.835 417.925 164.077 419.169C163.327 420.414 162.283 421.373 160.945 422.046C159.607 422.719 158.051 423.056 156.278 423.056C154.702 423.056 153.27 422.779 151.983 422.225C150.705 421.662 149.69 420.81 148.94 419.668C148.19 418.517 147.82 417.073 147.828 415.334H153.338C153.355 416.025 153.496 416.617 153.76 417.111C154.033 417.597 154.403 417.972 154.872 418.236C155.349 418.492 155.912 418.62 156.56 418.62C157.241 418.62 157.817 418.475 158.286 418.185C158.763 417.887 159.125 417.452 159.372 416.881C159.619 416.31 159.743 415.607 159.743 414.772V396.516ZM176.118 423.081C174.098 423.081 172.359 422.672 170.902 421.854C169.453 421.027 168.337 419.86 167.552 418.351C166.768 416.834 166.376 415.04 166.376 412.969C166.376 410.949 166.768 409.177 167.552 407.651C168.337 406.125 169.44 404.937 170.864 404.084C172.295 403.232 173.974 402.806 175.9 402.806C177.196 402.806 178.402 403.015 179.518 403.432C180.643 403.841 181.623 404.459 182.459 405.286C183.302 406.113 183.959 407.152 184.427 408.405C184.896 409.65 185.131 411.107 185.131 412.777V414.273H168.55V410.898H180.004C180.004 410.114 179.834 409.419 179.493 408.814C179.152 408.209 178.679 407.736 178.074 407.395C177.477 407.046 176.783 406.871 175.99 406.871C175.163 406.871 174.43 407.063 173.791 407.446C173.16 407.821 172.666 408.329 172.308 408.968C171.95 409.598 171.767 410.302 171.758 411.077V414.286C171.758 415.258 171.937 416.097 172.295 416.804C172.662 417.512 173.177 418.057 173.842 418.441C174.507 418.824 175.295 419.016 176.207 419.016C176.812 419.016 177.366 418.931 177.869 418.76C178.372 418.59 178.802 418.334 179.16 417.993C179.518 417.652 179.791 417.235 179.979 416.74L185.016 417.073C184.76 418.283 184.236 419.34 183.443 420.243C182.659 421.138 181.645 421.837 180.4 422.34C179.165 422.834 177.737 423.081 176.118 423.081ZM195.113 423.081C193.094 423.081 191.355 422.672 189.897 421.854C188.449 421.027 187.332 419.86 186.548 418.351C185.764 416.834 185.372 415.04 185.372 412.969C185.372 410.949 185.764 409.177 186.548 407.651C187.332 406.125 188.436 404.937 189.859 404.084C191.291 403.232 192.97 402.806 194.896 402.806C196.192 402.806 197.397 403.015 198.514 403.432C199.639 403.841 200.619 404.459 201.454 405.286C202.298 406.113 202.954 407.152 203.423 408.405C203.892 409.65 204.126 411.107 204.126 412.777V414.273H187.545V410.898H199C199 410.114 198.829 409.419 198.488 408.814C198.147 408.209 197.674 407.736 197.069 407.395C196.473 407.046 195.778 406.871 194.986 406.871C194.159 406.871 193.426 407.063 192.787 407.446C192.156 407.821 191.662 408.329 191.304 408.968C190.946 409.598 190.763 410.302 190.754 411.077V414.286C190.754 415.258 190.933 416.097 191.291 416.804C191.657 417.512 192.173 418.057 192.838 418.441C193.503 418.824 194.291 419.016 195.203 419.016C195.808 419.016 196.362 418.931 196.865 418.76C197.368 418.59 197.798 418.334 198.156 417.993C198.514 417.652 198.787 417.235 198.974 416.74L204.011 417.073C203.755 418.283 203.231 419.34 202.439 420.243C201.655 421.138 200.64 421.837 199.396 422.34C198.16 422.834 196.733 423.081 195.113 423.081ZM222.94 403.062L216.075 422.698H209.938L203.073 403.062H208.826L212.904 417.111H213.109L217.174 403.062H222.94ZM228.653 411.346V422.698H223.207V403.062H228.397V406.526H228.627C229.062 405.384 229.79 404.481 230.813 403.816C231.836 403.142 233.076 402.806 234.533 402.806C235.897 402.806 237.086 403.104 238.1 403.701C239.114 404.297 239.903 405.15 240.465 406.258C241.028 407.357 241.309 408.669 241.309 410.195V422.698H235.863V411.167C235.871 409.965 235.565 409.027 234.942 408.354C234.32 407.672 233.464 407.331 232.373 407.331C231.64 407.331 230.992 407.489 230.43 407.804C229.876 408.12 229.441 408.58 229.126 409.185C228.819 409.782 228.661 410.502 228.653 411.346ZM243.081 422.698V403.062H248.527V422.698H243.081ZM245.817 400.53C245.007 400.53 244.313 400.262 243.733 399.725C243.162 399.179 242.877 398.527 242.877 397.769C242.877 397.019 243.162 396.375 243.733 395.839C244.313 395.293 245.007 395.02 245.817 395.02C246.627 395.02 247.317 395.293 247.888 395.839C248.467 396.375 248.757 397.019 248.757 397.769C248.757 398.527 248.467 399.179 247.888 399.725C247.317 400.262 246.627 400.53 245.817 400.53Z" fill="white"/>
<defs>
<linearGradient id="paint0_linear_271_412" x1="204.272" y1="10.9871" x2="204.272" y2="803.253" gradientUnits="userSpaceOnUse">
<stop stop-color="#130C2D" stop-opacity="0.65"/>
<stop offset="1" stop-color="#FF3939" stop-opacity="0"/>
</linearGradient>
</defs>
</svg>
