<svg width="32" height="32" viewBox="0 0 32 32" fill="none" xmlns="http://www.w3.org/2000/svg">
<mask id="mask0_271_524" style="mask-type:alpha" maskUnits="userSpaceOnUse" x="0" y="0" width="32" height="32">
<rect width="32" height="32" fill="#D9D9D9"/>
</mask>
<g mask="url(#mask0_271_524)">
<path d="M14.6666 27.1024L11.7795 24.5076C9.96579 22.858 8.43543 21.4152 7.18843 20.1793C5.94141 18.9434 4.93286 17.8148 4.16277 16.7934C3.39268 15.772 2.83968 14.8118 2.50377 13.9127C2.16792 13.0135 2 12.087 2 11.1332C2 9.24088 2.63802 7.66012 3.91407 6.39089C5.19011 5.12167 6.77428 4.48706 8.66657 4.48706C9.83068 4.48706 10.9307 4.75587 11.9666 5.29349C13.0025 5.83109 13.9025 6.60845 14.6666 7.62556C15.4307 6.60845 16.3307 5.83109 17.3666 5.29349C18.4025 4.75587 19.5025 4.48706 20.6666 4.48706C22.4187 4.48706 23.8909 5.03365 25.0832 6.12683C26.2755 7.21998 26.9845 8.52895 27.2101 10.0537C26.7913 9.90159 26.3588 9.80117 25.9127 9.75246C25.4665 9.70373 25.0136 9.67936 24.5537 9.67936C22.6392 9.68792 20.9294 10.4063 19.4242 11.8345C17.9191 13.2627 17.1666 15.087 17.1666 17.3076C17.1666 18.2802 17.3636 19.261 17.7576 20.2498C18.1516 21.2387 18.7238 22.0819 19.4742 22.7793C19.0264 23.1827 18.4913 23.6618 17.8691 24.2165C17.2469 24.7712 16.67 25.2921 16.1383 25.7793L14.6666 27.1024ZM23.9332 21.0921L20.6076 17.7999L22.0332 16.3948L23.9332 18.2743L28.6332 13.5614L30.0588 14.9665L23.9332 21.0921Z" fill="white"/>
</g>
</svg>
