<svg width="32" height="32" viewBox="0 0 32 32" fill="none" xmlns="http://www.w3.org/2000/svg">
<mask id="mask0_271_527" style="mask-type:alpha" maskUnits="userSpaceOnUse" x="0" y="0" width="32" height="32">
<rect width="32" height="32" fill="#D9D9D9"/>
</mask>
<g mask="url(#mask0_271_527)">
<path d="M23.9332 21.0921L20.6076 17.7999L22.0332 16.3948L23.9332 18.2743L28.6332 13.5743L30.0588 14.9665L23.9332 21.0921ZM14.6666 27.1024L11.7795 24.5076C9.96579 22.858 8.43543 21.4152 7.18843 20.1793C5.94141 18.9434 4.93286 17.8148 4.16277 16.7934C3.39268 15.772 2.83968 14.8118 2.50377 13.9127C2.16792 13.0135 2 12.087 2 11.1332C2 9.24088 2.63802 7.66012 3.91407 6.39089C5.19011 5.12167 6.77428 4.48706 8.66657 4.48706C9.83068 4.48706 10.9307 4.75929 11.9666 5.30376C13.0025 5.8482 13.9025 6.62897 14.6666 7.64606C15.4307 6.62897 16.3307 5.8482 17.3666 5.30376C18.4025 4.75929 19.5025 4.48706 20.6666 4.48706C22.3383 4.48706 23.749 4.9798 24.8986 5.96529C26.0482 6.95076 26.7939 8.18451 27.1358 9.66656H25.0332C24.7273 8.67509 24.1683 7.8973 23.3563 7.33319C22.5444 6.76908 21.6478 6.48703 20.6666 6.48703C19.5589 6.48703 18.579 6.79258 17.7268 7.40369C16.8747 8.0148 16.0717 8.88019 15.3178 9.99986H14.0153C13.2666 8.87164 12.4512 8.00411 11.5691 7.39729C10.6871 6.79045 9.71957 6.48703 8.66657 6.48703C7.38281 6.48703 6.28409 6.92805 5.3704 7.81009C4.45673 8.69216 3.9999 9.79986 3.9999 11.1332C3.9999 11.8751 4.15546 12.628 4.46657 13.3922C4.77768 14.1563 5.33323 15.037 6.13323 16.0345C6.93323 17.0319 8.02212 18.2003 9.3999 19.5396C10.7777 20.8789 12.5332 22.499 14.6666 24.3999C15.2956 23.8375 15.9691 23.24 16.6871 22.6076C17.405 21.9751 18.0102 21.4238 18.5025 20.9537L19.9281 22.3793C19.4221 22.8494 18.8191 23.393 18.1191 24.0101C17.4191 24.6272 16.7588 25.2169 16.1383 25.7793L14.6666 27.1024Z" fill="#1E0C2B"/>
</g>
</svg>
