<svg width="139" height="58" viewBox="0 0 139 58" fill="none" xmlns="http://www.w3.org/2000/svg">
<path d="M17.0114 11.0909H24.3068V35.4318C24.3068 37.6818 23.8011 39.6364 22.7898 41.2955C21.7898 42.9545 20.3977 44.233 18.6136 45.1307C16.8295 46.0284 14.7557 46.4773 12.392 46.4773C10.2898 46.4773 8.38068 46.108 6.66477 45.3693C4.96023 44.6193 3.60795 43.483 2.60795 41.9602C1.60795 40.4261 1.11364 38.5 1.125 36.1818H8.47159C8.49432 37.1023 8.68182 37.892 9.03409 38.5511C9.39773 39.1989 9.89205 39.6989 10.517 40.0511C11.1534 40.392 11.9034 40.5625 12.767 40.5625C13.6761 40.5625 14.4432 40.3693 15.0682 39.983C15.7045 39.5852 16.1875 39.0057 16.517 38.2443C16.8466 37.483 17.0114 36.5455 17.0114 35.4318V11.0909ZM38.8445 46.5114C36.1514 46.5114 33.8332 45.9659 31.89 44.875C29.9582 43.7727 28.4695 42.2159 27.4241 40.2045C26.3786 38.1818 25.8559 35.7898 25.8559 33.0284C25.8559 30.3352 26.3786 27.9716 27.4241 25.9375C28.4695 23.9034 29.9411 22.3182 31.8389 21.1818C33.748 20.0455 35.9866 19.4773 38.5548 19.4773C40.282 19.4773 41.89 19.7557 43.3786 20.3125C44.8786 20.858 46.1855 21.6818 47.2991 22.7841C48.4241 23.8864 49.2991 25.2727 49.9241 26.9432C50.5491 28.6023 50.8616 30.5455 50.8616 32.7727V34.767H28.7536V30.267H44.0264C44.0264 29.2216 43.7991 28.2955 43.3445 27.4886C42.89 26.6818 42.2593 26.0511 41.4525 25.5966C40.657 25.1307 39.7309 24.8977 38.6741 24.8977C37.5718 24.8977 36.5945 25.1534 35.7423 25.6648C34.9014 26.1648 34.2423 26.8409 33.765 27.6932C33.2877 28.5341 33.0434 29.4716 33.032 30.5057V34.7841C33.032 36.0795 33.2707 37.1989 33.748 38.142C34.2366 39.0852 34.9241 39.8125 35.8105 40.3239C36.6968 40.8352 37.748 41.0909 38.9639 41.0909C39.7707 41.0909 40.5093 40.9773 41.1798 40.75C41.8502 40.5227 42.4241 40.1818 42.9014 39.7273C43.3786 39.2727 43.7423 38.7159 43.9923 38.0568L50.7082 38.5C50.3673 40.1136 49.6684 41.5227 48.6116 42.7273C47.5661 43.9205 46.2139 44.8523 44.5548 45.5227C42.907 46.1818 41.0036 46.5114 38.8445 46.5114ZM64.172 46.5114C61.4789 46.5114 59.1607 45.9659 57.2175 44.875C55.2857 43.7727 53.797 42.2159 52.7516 40.2045C51.7061 38.1818 51.1834 35.7898 51.1834 33.0284C51.1834 30.3352 51.7061 27.9716 52.7516 25.9375C53.797 23.9034 55.2686 22.3182 57.1664 21.1818C59.0755 20.0455 61.3141 19.4773 63.8823 19.4773C65.6095 19.4773 67.2175 19.7557 68.7061 20.3125C70.2061 20.858 71.513 21.6818 72.6266 22.7841C73.7516 23.8864 74.6266 25.2727 75.2516 26.9432C75.8766 28.6023 76.1891 30.5455 76.1891 32.7727V34.767H54.0811V30.267H69.3539C69.3539 29.2216 69.1266 28.2955 68.672 27.4886C68.2175 26.6818 67.5868 26.0511 66.78 25.5966C65.9845 25.1307 65.0584 24.8977 64.0016 24.8977C62.8993 24.8977 61.922 25.1534 61.0698 25.6648C60.2289 26.1648 59.5698 26.8409 59.0925 27.6932C58.6152 28.5341 58.3709 29.4716 58.3595 30.5057V34.7841C58.3595 36.0795 58.5982 37.1989 59.0755 38.142C59.5641 39.0852 60.2516 39.8125 61.138 40.3239C62.0243 40.8352 63.0755 41.0909 64.2914 41.0909C65.0982 41.0909 65.8368 40.9773 66.5073 40.75C67.1777 40.5227 67.7516 40.1818 68.2289 39.7273C68.7061 39.2727 69.0698 38.7159 69.3198 38.0568L76.0357 38.5C75.6948 40.1136 74.9959 41.5227 73.9391 42.7273C72.8936 43.9205 71.5414 44.8523 69.8823 45.5227C68.2345 46.1818 66.3311 46.5114 64.172 46.5114ZM101.274 19.8182L92.1203 46H83.9385L74.7851 19.8182H82.4555L87.893 38.5511H88.1657L93.5862 19.8182H101.274ZM108.891 30.8636V46H101.63V19.8182H108.55V24.4375H108.857C109.436 22.9148 110.408 21.7102 111.772 20.8239C113.135 19.9261 114.789 19.4773 116.732 19.4773C118.55 19.4773 120.135 19.875 121.488 20.6705C122.84 21.4659 123.891 22.6023 124.641 24.0795C125.391 25.5455 125.766 27.2955 125.766 29.3295V46H118.505V30.625C118.516 29.0227 118.107 27.7727 117.277 26.875C116.448 25.9659 115.306 25.5114 113.851 25.5114C112.874 25.5114 112.01 25.7216 111.26 26.142C110.522 26.5625 109.942 27.1761 109.522 27.983C109.113 28.7784 108.902 29.7386 108.891 30.8636ZM128.129 46V19.8182H135.39V46H128.129ZM131.777 16.4432C130.697 16.4432 129.771 16.0852 128.998 15.3693C128.237 14.642 127.856 13.7727 127.856 12.7614C127.856 11.7614 128.237 10.9034 128.998 10.1875C129.771 9.46023 130.697 9.09659 131.777 9.09659C132.856 9.09659 133.777 9.46023 134.538 10.1875C135.311 10.9034 135.697 11.7614 135.697 12.7614C135.697 13.7727 135.311 14.642 134.538 15.3693C133.777 16.0852 132.856 16.4432 131.777 16.4432Z" fill="white"/>
</svg>
