<svg width="36" height="38" viewBox="0 0 36 38" fill="none" xmlns="http://www.w3.org/2000/svg">
<mask id="mask0_348_1055" style="mask-type:alpha" maskUnits="userSpaceOnUse" x="0" y="0" width="36" height="38">
<rect width="36" height="37.0286" fill="#D9D9D9"/>
</mask>
<g mask="url(#mask0_348_1055)">
<path d="M18 32.4001C16.1423 32.4001 14.3923 32.0347 12.75 31.3038C11.1077 30.5729 9.67741 29.5809 8.45914 28.3278C7.24086 27.0748 6.27644 25.6036 5.56586 23.9144C4.85529 22.2252 4.5 20.4252 4.5 18.5144C4.5 16.5977 4.85529 14.7962 5.56586 13.1099C6.27644 11.4237 7.24086 9.954 8.45914 8.70092C9.67741 7.44784 11.1077 6.45585 12.75 5.72498C14.3923 4.9941 16.1423 4.62866 18 4.62866C19.8635 4.62866 21.6149 4.9941 23.2543 5.72498C24.8937 6.45585 26.3226 7.44784 27.5409 8.70092C28.7591 9.954 29.7236 11.4237 30.4341 13.1099C31.1447 14.7962 31.5 16.5977 31.5 18.5144C31.5 20.4252 31.1447 22.2252 30.4341 23.9144C29.7236 25.6036 28.7591 27.0748 27.5409 28.3278C26.3226 29.5809 24.8937 30.5729 23.2543 31.3038C21.6149 32.0347 19.8635 32.4001 18 32.4001ZM18 30.8691C18.8808 29.706 19.6067 28.5637 20.1779 27.4422C20.749 26.3206 21.2135 25.0656 21.5712 23.677H14.4288C14.825 25.1447 15.299 26.4393 15.851 27.5609C16.4029 28.6824 17.1192 29.7852 18 30.8691ZM16.0904 30.6377C15.3904 29.7891 14.7514 28.7403 14.1735 27.4911C13.5957 26.242 13.1654 24.9706 12.8827 23.677H7.13078C7.9904 25.5957 9.20915 27.1692 10.787 28.3976C12.3649 29.6259 14.1327 30.3726 16.0904 30.6377ZM19.9096 30.6377C21.8673 30.3726 23.6351 29.6259 25.213 28.3976C26.7908 27.1692 28.0096 25.5957 28.8692 23.677H23.1173C22.7385 24.9904 22.2601 26.2717 21.6822 27.5208C21.1043 28.7699 20.5135 29.8089 19.9096 30.6377ZM6.51922 22.1342H12.5712C12.4577 21.5012 12.3774 20.8846 12.3303 20.2842C12.2832 19.6839 12.2596 19.0939 12.2596 18.5144C12.2596 17.9348 12.2832 17.3449 12.3303 16.7445C12.3774 16.1442 12.4577 15.5276 12.5712 14.8946H6.51922C6.35577 15.4287 6.22838 16.0107 6.13703 16.6407C6.04568 17.2707 6 17.8953 6 18.5144C6 19.1335 6.04568 19.7581 6.13703 20.3881C6.22838 21.0181 6.35577 21.6001 6.51922 22.1342ZM14.0712 22.1342H21.9288C22.0423 21.5012 22.1226 20.8944 22.1697 20.3139C22.2168 19.7333 22.2404 19.1335 22.2404 18.5144C22.2404 17.8953 22.2168 17.2954 22.1697 16.7149C22.1226 16.1343 22.0423 15.5276 21.9288 14.8946H14.0712C13.9577 15.5276 13.8774 16.1343 13.8303 16.7149C13.7832 17.2954 13.7596 17.8953 13.7596 18.5144C13.7596 19.1335 13.7832 19.7333 13.8303 20.3139C13.8774 20.8944 13.9577 21.5012 14.0712 22.1342ZM23.4288 22.1342H29.4808C29.6442 21.6001 29.7716 21.0181 29.863 20.3881C29.9543 19.7581 30 19.1335 30 18.5144C30 17.8953 29.9543 17.2707 29.863 16.6407C29.7716 16.0107 29.6442 15.4287 29.4808 14.8946H23.4288C23.5423 15.5276 23.6226 16.1442 23.6697 16.7445C23.7168 17.3449 23.7404 17.9348 23.7404 18.5144C23.7404 19.0939 23.7168 19.6839 23.6697 20.2842C23.6226 20.8846 23.5423 21.5012 23.4288 22.1342ZM23.1173 13.3517H28.8692C27.9904 11.3935 26.7861 9.81998 25.2563 8.63118C23.7264 7.44241 21.9442 6.68582 19.9096 6.36141C20.6096 7.30887 21.2389 8.39233 21.7976 9.61178C22.3563 10.8312 22.7962 12.0779 23.1173 13.3517ZM14.4288 13.3517H21.5712C21.175 11.9038 20.6866 10.5944 20.1058 9.4234C19.525 8.2524 18.8231 7.16448 18 6.15964C17.1769 7.16448 16.475 8.2524 15.8942 9.4234C15.3135 10.5944 14.825 11.9038 14.4288 13.3517ZM7.13078 13.3517H12.8827C13.2038 12.0779 13.6437 10.8312 14.2024 9.61178C14.7611 8.39233 15.3904 7.30887 16.0904 6.36141C14.0365 6.68582 12.2495 7.44736 10.7293 8.64603C9.20914 9.8447 8.00963 11.4133 7.13078 13.3517Z" fill="#1C1B1F"/>
</g>
</svg>
