<svg width="14" height="14" viewBox="0 0 14 14" fill="none" xmlns="http://www.w3.org/2000/svg">
<mask id="mask0_275_21" style="mask-type:alpha" maskUnits="userSpaceOnUse" x="0" y="0" width="14" height="14">
<rect width="14" height="14" fill="#D9D9D9"/>
</mask>
<g mask="url(#mask0_275_21)">
<path d="M6.99966 1.5481C7.44987 2.09179 7.85801 2.61006 8.22409 3.1029C8.59017 3.59575 8.92017 4.07326 9.21408 4.53543L12.5413 2.0417V6.99999C12.5413 7.7658 12.3957 8.4858 12.1044 9.16C11.8131 9.8342 11.418 10.4207 10.9192 10.9195C10.4204 11.4183 9.83387 11.8134 9.15967 12.1047C8.48547 12.396 7.76547 12.5416 6.99966 12.5416C6.23385 12.5416 5.51385 12.396 4.83965 12.1047C4.16545 11.8134 3.57894 11.4183 3.08013 10.9195C2.5813 10.4207 2.18624 9.8342 1.89495 9.16C1.60366 8.4858 1.45801 7.7658 1.45801 6.99999V2.0417L4.78524 4.53543C5.07915 4.08298 5.40915 3.6079 5.77523 3.11019C6.14131 2.61249 6.54945 2.09179 6.99966 1.5481ZM2.33299 3.79165V6.99999C2.33299 7.58483 2.44312 8.13115 2.66338 8.63896C2.88363 9.14677 3.18072 9.58576 3.55467 9.95596C3.44548 9.78395 3.3604 9.59754 3.29945 9.39673C3.23849 9.19592 3.20801 8.98034 3.20801 8.74999C3.20801 8.25192 3.29794 7.71813 3.4778 7.14863C3.65766 6.57914 3.93867 5.95934 4.32083 5.28926L2.33299 3.79165ZM6.99966 2.91665C6.00127 4.12594 5.26556 5.23446 4.79253 6.24221C4.31951 7.24996 4.08299 8.08588 4.08299 8.74999C4.08299 9.55693 4.36737 10.2448 4.93612 10.8135C5.50487 11.3823 6.19272 11.6667 6.99966 11.6667C7.8066 11.6667 8.49445 11.3823 9.0632 10.8135C9.63195 10.2448 9.91633 9.55693 9.91633 8.74999C9.91633 8.08588 9.67981 7.24697 9.20679 6.23324C8.73376 5.2195 7.99805 4.11397 6.99966 2.91665ZM11.6663 3.79165L9.67849 5.28029C10.0606 5.95038 10.3417 6.57017 10.5215 7.13967C10.7014 7.70916 10.7913 8.24593 10.7913 8.74999C10.7913 8.98034 10.7608 9.19592 10.6999 9.39673C10.6389 9.59754 10.5538 9.78395 10.4447 9.95596C10.8186 9.58576 11.1157 9.14677 11.3359 8.63896C11.5562 8.13115 11.6663 7.58483 11.6663 6.99999V3.79165Z" fill="white"/>
</g>
</svg>
