<svg width="30" height="32" viewBox="0 0 30 32" fill="none" xmlns="http://www.w3.org/2000/svg">
<mask id="mask0_348_1048" style="mask-type:alpha" maskUnits="userSpaceOnUse" x="0" y="0" width="30" height="32">
<rect width="30" height="32" fill="#D9D9D9"/>
</mask>
<g mask="url(#mask0_348_1048)">
<path d="M24.1658 15.4717C24.0136 12.8512 23.0805 10.6268 21.3666 8.79861C19.6526 6.97041 17.5713 5.97939 15.1226 5.82554V4.31274C16.5344 4.3743 17.8617 4.70678 19.1045 5.31018C20.3473 5.9136 21.4386 6.71873 22.3785 7.72558C23.3185 8.7324 24.0713 9.89863 24.6369 11.2243C25.2026 12.5499 25.5184 13.9657 25.5841 15.4717H24.1658ZM18.9567 15.4717C18.8044 14.4033 18.3778 13.4943 17.6767 12.7448C16.9755 11.9952 16.1242 11.5478 15.1226 11.4024V9.88968C16.5168 10.035 17.7027 10.6277 18.6802 11.6679C19.6578 12.708 20.2227 13.976 20.3749 15.4717H18.9567ZM24.2307 27.3332C22.0144 27.3332 19.7291 26.7366 17.375 25.5434C15.0208 24.3503 12.8229 22.6648 10.7813 20.4871C8.7476 18.3093 7.17149 15.967 6.05291 13.4602C4.9343 10.9534 4.375 8.5179 4.375 6.15381C4.375 5.73257 4.50665 5.37939 4.76994 5.09428C5.03321 4.80917 5.3623 4.66661 5.75722 4.66661H9.32359C9.64951 4.66661 9.92465 4.77987 10.149 5.00638C10.3734 5.23287 10.5312 5.5256 10.6226 5.88458L11.3679 9.45718C11.4111 9.79336 11.4006 10.0956 11.3365 10.364C11.2724 10.6324 11.1506 10.858 10.9712 11.0408L8.02159 14.105C8.57928 15.1256 9.16823 16.0709 9.78844 16.9409C10.4086 17.811 11.0793 18.6281 11.8004 19.3922C12.5793 20.2452 13.4078 21.0238 14.286 21.7281C15.1642 22.4324 16.1041 23.0726 17.1058 23.6486L19.9423 20.5358C20.1506 20.2914 20.3838 20.1269 20.6418 20.0422C20.8999 19.9576 21.1691 19.9375 21.4495 19.982L24.4831 20.6948C24.8196 20.7751 25.0941 20.9559 25.3064 21.2369C25.5188 21.5181 25.6249 21.8365 25.6249 22.1922V25.8588C25.6249 26.2801 25.4913 26.6311 25.224 26.9119C24.9567 27.1928 24.6256 27.3332 24.2307 27.3332ZM7.31247 12.7333L9.89181 10.064C9.92388 10.0298 9.94591 9.98283 9.95791 9.92301C9.96993 9.86317 9.97194 9.80761 9.96394 9.75634L9.28125 6.38454C9.27323 6.31617 9.24719 6.26489 9.20313 6.23071C9.15904 6.19651 9.10495 6.17941 9.04084 6.17941H5.96153C5.91345 6.17941 5.87339 6.19651 5.84134 6.23071C5.80928 6.26489 5.79325 6.30762 5.79325 6.35891C5.81087 7.28369 5.94549 8.26915 6.19709 9.31531C6.4487 10.3615 6.82049 11.5008 7.31247 12.7333ZM18.4471 24.3717C19.3012 24.8196 20.2363 25.1683 21.2523 25.4178C22.2684 25.6674 23.1971 25.8059 24.0384 25.8332C24.0865 25.8332 24.1266 25.8161 24.1586 25.7819C24.1907 25.7477 24.2067 25.705 24.2067 25.6537V22.3819C24.2067 22.3136 24.1907 22.2559 24.1586 22.2089C24.1266 22.1619 24.0785 22.1341 24.0144 22.1255L21.1803 21.5024C21.1322 21.4939 21.0901 21.4961 21.0541 21.5089C21.018 21.5217 20.9799 21.5452 20.9398 21.5794L18.4471 24.3717Z" fill="#1C1B1F"/>
</g>
</svg>
