<svg width="289" height="92" viewBox="0 0 289 92" fill="none" xmlns="http://www.w3.org/2000/svg">
<path d="M46 1H243.346C268.235 1 288.346 21.1746 288.346 46C288.346 70.8883 268.172 91 243.346 91H46C21.1117 91 1 70.8254 1 46C1 21.1117 21.1746 1 46 1Z" fill="white"/>
<path d="M46 1.81702H243.346C267.732 1.81702 287.466 21.5517 287.466 45.9371C287.466 70.3226 267.732 90.0572 243.346 90.0572H46C21.6145 90.0572 1.87988 70.3226 1.87988 45.9371C1.87988 21.6145 21.6145 1.81702 46 1.81702Z" stroke="#DDDDDD" stroke-width="2.7543"/>
<path d="M74.7217 45.0572L53.2902 25.0083C53.1016 25.5111 52.9131 26.0139 52.9131 26.7052V63.5977C52.9131 64.289 53.1016 64.7918 53.2902 65.2946L74.7217 45.0572Z" fill="#0F0829"/>
<path d="M77.2363 45.0573L84.4011 51.7193L92.2573 47.5712C94.7712 46.2514 94.7712 44.0517 92.2573 42.7319L84.2126 38.3953L77.2363 45.0573Z" fill="#0F0829"/>
<path d="M75.9794 43.8631L82.5786 37.5153L57.3761 24.1913C56.3076 23.6885 55.2392 23.5 54.5479 23.8771L75.9794 43.8631Z" fill="#0F0829"/>
<path d="M75.9794 46.1886L54.5479 66.3632C55.2392 66.6774 56.3076 66.5517 57.5646 66.0489L82.8928 52.7249L75.9794 46.1886Z" fill="#0F0829"/>
<path d="M110.044 26.3911C108.598 26.3911 107.341 26.8939 106.336 27.8995C105.33 28.9051 104.827 30.1621 104.827 31.6704C104.827 33.1788 105.33 34.4358 106.336 35.4414C107.341 36.447 108.598 36.9498 110.044 36.9498C112.055 36.9498 113.752 35.8813 114.632 34.2473V31.3562H109.981V32.8017H112.998V33.933C112.306 35.0014 111.363 35.5042 110.044 35.5042C108.975 35.5042 108.095 35.1271 107.404 34.4358C106.713 33.6816 106.398 32.8017 106.398 31.6704C106.398 30.602 106.713 29.6593 107.404 28.9679C108.032 28.2766 108.912 27.8995 109.981 27.8995C111.238 27.8995 112.18 28.4651 112.935 29.5336L114.066 28.528C113.186 27.1453 111.803 26.3911 110.044 26.3911Z" fill="#010202"/>
<path d="M116.643 26.5796V36.824H123.305V35.3785H118.214V32.1103H121.922V30.6648H118.214V28.0251H123.116V26.5796H116.643Z" fill="#010202"/>
<path d="M124.122 26.5796V28.0251H127.453V36.824H129.024V28.0251H132.355V26.5796H124.122Z" fill="#010202"/>
<path d="M137.32 26.5796V36.824H138.892V26.5796H137.32Z" fill="#010202"/>
<path d="M140.399 26.5796V28.0251H143.73V36.824H145.302V28.0251H148.633V26.5796H140.399Z" fill="#010202"/>
<path d="M158.123 26.3911C156.677 26.3911 155.42 26.8939 154.415 27.8995C153.409 28.9051 152.906 30.1621 152.906 31.6704C152.906 33.1788 153.409 34.4358 154.415 35.4414C155.42 36.447 156.614 36.9498 158.123 36.9498C159.568 36.9498 160.762 36.447 161.768 35.4414C162.774 34.4358 163.276 33.1788 163.276 31.6704C163.276 30.1621 162.774 28.9051 161.768 27.8995C160.825 26.8939 159.568 26.3911 158.123 26.3911ZM158.123 27.8995C159.128 27.8995 160.008 28.2766 160.637 28.9679C161.328 29.6593 161.642 30.602 161.642 31.6704C161.642 32.8017 161.328 33.6816 160.637 34.3729C159.945 35.0643 159.128 35.4414 158.123 35.4414C157.117 35.4414 156.237 35.0643 155.609 34.3729C154.917 33.6188 154.603 32.7389 154.603 31.6704C154.603 30.602 154.917 29.6593 155.609 28.9679C156.3 28.2766 157.117 27.8995 158.123 27.8995Z" fill="#010202"/>
<path d="M171.761 33.4931L165.79 26.3911H165.225V36.8241H166.796V29.9107L172.829 37.0126H173.395V26.5797H171.824V33.4931H171.761Z" fill="#010202"/>
<path d="M113.94 44.4287C111.363 44.4287 109.227 45.3086 107.467 47.1312C105.707 48.891 104.827 51.0907 104.827 53.7304C104.827 56.3701 105.707 58.5698 107.467 60.3296C109.227 62.0893 111.363 62.9692 113.94 62.9692C117.397 62.9692 120.477 61.0837 121.985 58.2555V53.2276H113.877V55.8044H119.22V57.7527C118.025 59.5754 116.329 60.4552 114.066 60.4552C112.18 60.4552 110.672 59.8268 109.478 58.5698C108.284 57.3128 107.718 55.6787 107.718 53.7304C107.718 51.8449 108.284 50.2737 109.415 49.0167C110.546 47.7597 112.055 47.1312 113.877 47.1312C116.014 47.1312 117.774 48.074 119.031 49.9594L121.042 48.2625C119.408 45.6857 117.02 44.4287 113.94 44.4287Z" fill="#010202"/>
<path d="M129.904 49.0167C128.018 49.0167 126.384 49.7081 125.065 51.0279C123.745 52.3477 123.116 54.0447 123.116 55.993C123.116 57.9413 123.745 59.6382 125.065 60.9581C126.384 62.2779 127.956 62.9692 129.904 62.9692C131.789 62.9692 133.361 62.2779 134.743 60.9581C136.063 59.5754 136.754 57.9413 136.754 55.993C136.754 54.0447 136.063 52.3477 134.743 51.0279C133.423 49.7081 131.789 49.0167 129.904 49.0167ZM129.967 51.6564C131.098 51.6564 132.041 52.0963 132.795 52.9134C133.549 53.7304 133.926 54.736 133.926 55.993C133.926 57.1871 133.549 58.2556 132.795 59.0726C132.041 59.8896 131.098 60.2667 129.967 60.2667C128.835 60.2667 127.893 59.8896 127.139 59.0726C126.384 58.2556 126.007 57.1871 126.007 55.993C126.007 54.736 126.384 53.7304 127.139 52.9134C127.83 52.0335 128.773 51.6564 129.967 51.6564Z" fill="#010202"/>
<path d="M144.547 49.0167C142.662 49.0167 141.028 49.7081 139.708 51.0279C138.388 52.3477 137.76 54.0447 137.76 55.993C137.76 57.9413 138.388 59.6382 139.708 60.9581C141.028 62.2779 142.599 62.9692 144.547 62.9692C146.433 62.9692 148.004 62.2779 149.387 60.9581C150.707 59.5754 151.398 57.9413 151.398 55.993C151.398 54.0447 150.707 52.3477 149.387 51.0279C148.067 49.7081 146.433 49.0167 144.547 49.0167ZM144.61 51.6564C145.742 51.6564 146.684 52.0963 147.439 52.9134C148.193 53.7304 148.57 54.736 148.57 55.993C148.57 57.1871 148.193 58.2556 147.439 59.0726C146.684 59.8896 145.742 60.2667 144.61 60.2667C143.479 60.2667 142.536 59.8896 141.782 59.0726C141.028 58.2556 140.651 57.1871 140.651 55.993C140.651 54.736 141.028 53.7304 141.782 52.9134C142.473 52.0335 143.416 51.6564 144.61 51.6564Z" fill="#010202"/>
<path d="M163.34 51.2164C162.334 49.7709 160.826 49.0167 158.815 49.0167C156.992 49.0167 155.547 49.6452 154.353 50.9022C153.158 52.1592 152.593 53.7304 152.593 55.7416C152.593 57.6899 153.221 59.324 154.353 60.581C155.547 61.8379 156.992 62.4664 158.815 62.4664C160.7 62.4664 162.083 61.8379 163.151 60.581V61.5237C163.151 64.0377 161.643 65.3575 159.318 65.3575C157.809 65.3575 156.301 64.729 154.792 63.472L153.284 65.4832C154.981 67.1801 157.055 67.9972 159.443 67.9972C163.34 67.9972 165.854 65.6089 165.854 61.398V49.4567H163.34V51.2164ZM159.255 59.8896C158.124 59.8896 157.244 59.5125 156.427 58.7583C155.672 57.9413 155.295 56.9357 155.295 55.7416C155.295 54.5474 155.672 53.5419 156.427 52.7248C157.181 51.9706 158.124 51.5935 159.255 51.5935C161.392 51.5935 163.151 52.9762 163.151 55.6787C163.151 57.0614 162.774 58.067 162.02 58.8212C161.203 59.5125 160.323 59.8896 159.255 59.8896Z" fill="#010202"/>
<path d="M168.493 42.2919V62.655H171.259V42.2919H168.493Z" fill="#010202"/>
<path d="M185.714 55.1131C185.714 53.3533 185.148 51.9078 184.017 50.7136C182.886 49.5195 181.503 48.9539 179.806 48.9539C177.921 48.9539 176.349 49.6452 175.093 50.965C173.836 52.2849 173.207 53.9818 173.207 55.9301C173.207 57.9413 173.836 59.5754 175.155 60.8952C176.475 62.215 178.109 62.9064 180.12 62.9064C182.069 62.9064 183.766 62.215 185.274 60.7695L183.954 58.8212C182.823 59.8896 181.566 60.3924 180.183 60.3924C177.984 60.3924 176.349 59.0726 175.972 56.8729H185.525C185.651 56.3072 185.714 55.6787 185.714 55.1131ZM179.681 51.4678C181.566 51.4678 182.949 52.7248 182.949 54.736H175.972C176.412 52.7248 177.858 51.4678 179.681 51.4678Z" fill="#010202"/>
<path d="M193.759 44.743V62.6551H196.524V55.7416H200.044C201.803 55.7416 203.186 55.2389 204.317 54.2333C205.386 53.2277 205.952 51.845 205.952 50.2109C205.952 48.5768 205.386 47.257 204.317 46.2514C203.249 45.2459 201.803 44.743 200.044 44.743H193.759ZM200.044 47.257C201.992 47.257 203.123 48.4512 203.123 50.2109C203.123 51.9707 201.992 53.1648 200.044 53.1648H196.587V47.257H200.044Z" fill="#010202"/>
<path d="M207.522 42.2919V62.655H210.288V42.2919H207.522Z" fill="#010202"/>
<path d="M217.892 49.0167C215.566 49.0167 213.744 49.9595 212.487 51.8449L214.058 53.5419C215.126 52.222 216.321 51.5307 217.64 51.5307C219.4 51.5307 220.406 52.5363 220.406 54.3589V55.2388H216.761C213.87 55.2388 212.047 56.7472 212.047 59.0726C212.047 61.398 213.807 62.9064 216.509 62.9064C218.269 62.9064 219.652 62.2779 220.594 61.0838V62.5921H223.171V54.5474C223.171 51.0279 221.097 49.0167 217.892 49.0167ZM217.075 60.7695C215.755 60.7695 214.812 60.141 214.812 59.0097C214.812 57.9413 215.566 57.3757 217.075 57.3757H220.343V57.627C220.406 59.4497 218.897 60.7695 217.075 60.7695Z" fill="#010202"/>
<path d="M230.839 59.0727L227.131 49.3311H224.177L229.33 62.0894L228.828 63.3464C228.199 64.8548 227.319 65.2947 225.999 65.2947C225.811 65.2947 225.308 65.2947 224.491 65.169V67.5573C225.182 67.7459 225.937 67.8087 226.628 67.8087C228.828 67.8087 230.273 66.6774 231.342 64.1635L237.626 49.3311H234.673L230.839 59.0727Z" fill="#010202"/>
</svg>
