<svg width="38" height="42" viewBox="0 0 38 42" fill="none" xmlns="http://www.w3.org/2000/svg">
<circle cx="18.6551" cy="21.3448" r="16.2069" fill="white"/>
<path fill-rule="evenodd" clip-rule="evenodd" d="M0.796987 6.47306C1.88748e-07 7.60259 0 10.96 0 17.6751V20.9819C0 32.8217 8.94891 38.5675 14.5636 41.0073C16.0867 41.669 16.8481 42 19 42C21.1519 42 21.9133 41.669 23.4363 41.0073C29.051 38.5675 38 32.8217 38 20.9819V17.6751C38 10.96 38 7.60259 37.2031 6.47306C36.4061 5.34353 33.2325 4.26292 26.8852 2.10166L25.676 1.68991C22.3672 0.563304 20.713 0 19 0C17.287 0 15.6328 0.563304 12.3241 1.68991L11.1148 2.10166C4.76756 4.26292 1.59395 5.34353 0.796987 6.47306ZM25.4589 17.8489C26.0412 17.2001 25.9846 16.2045 25.3323 15.6252C24.6799 15.0458 23.6791 15.1022 23.0966 15.751L16.7382 22.8352L14.9034 20.791C14.3209 20.1421 13.32 20.0859 12.6677 20.665C12.0154 21.2444 11.9587 22.24 12.5412 22.8889L15.557 26.2489C15.8574 26.5837 16.287 26.775 16.7382 26.775C17.1891 26.775 17.6187 26.5837 17.9191 26.2489L25.4589 17.8489Z" fill="#2848B5"/>
</svg>
