<svg width="17" height="17" viewBox="0 0 17 17" fill="none" xmlns="http://www.w3.org/2000/svg">
<path d="M15.2442 6.08328C15.6406 6.08328 15.9907 6.23526 16.2947 6.53921C16.5986 6.84316 16.7506 7.19332 16.7506 7.58969V8.93582C16.7506 9.02236 16.7415 9.11584 16.7234 9.21626C16.7052 9.31669 16.6779 9.41017 16.6416 9.49671L14.2538 15.1313C14.1342 15.3984 13.9338 15.6238 13.6529 15.8076C13.3719 15.9914 13.0797 16.0832 12.7763 16.0832H6.02946C5.61387 16.0832 5.2589 15.9361 4.96457 15.6417C4.67022 15.3474 4.52305 14.9924 4.52305 14.5768V6.70667C4.52305 6.50583 4.56418 6.31272 4.64644 6.12736C4.72871 5.942 4.83822 5.78094 4.97498 5.64419L9.38363 1.26438C9.54921 1.10734 9.74098 1.01065 9.95892 0.974318C10.1769 0.937998 10.3857 0.970588 10.5855 1.07209C10.7853 1.17357 10.9295 1.32261 11.0182 1.51919C11.1069 1.71576 11.1245 1.92462 11.0711 2.14578L10.1737 6.08328H15.2442ZM1.5904 16.0832C1.1748 16.0832 0.819839 15.9361 0.525505 15.6417C0.231158 15.3474 0.0839844 14.9924 0.0839844 14.5768V7.58969C0.0839844 7.1741 0.231158 6.81913 0.525505 6.5248C0.819839 6.23045 1.1748 6.08328 1.5904 6.08328H1.76669C2.18229 6.08328 2.53726 6.23045 2.83159 6.5248C3.12592 6.81913 3.27309 7.1741 3.27309 7.58969V14.5848C3.27309 15.0004 3.12592 15.3541 2.83159 15.6457C2.53726 15.9374 2.18229 16.0832 1.76669 16.0832H1.5904Z" fill="#DDA30E"/>
</svg>
